<svg width="104" height="83" viewBox="0 0 104 83" fill="none" xmlns="http://www.w3.org/2000/svg">
<g clip-path="url(#clip0_384_242)">
<path fill-rule="evenodd" clip-rule="evenodd" d="M53.5662 79.4011C53.2671 80.2533 52.8105 81.299 52.5515 81.7253C52.2926 82.1512 51.9778 82.5 51.852 82.5C51.2526 82.5 49.5566 77.999 49.1258 75.2649C48.9151 73.9288 48.7306 74.3512 48.5455 76.5926L48.3827 78.5668L47.7324 77.216C47.1359 75.9767 46.8791 74.9867 46.4751 72.3691L46.328 71.4157L46.1002 72.0116C45.9752 72.3393 45.7978 73.412 45.7064 74.3953L45.5403 76.1831L45.0999 75.1104C44.5187 73.695 44.3332 70.8302 44.7066 69.0386L45.0033 67.6151L45.5886 68.3235C45.9106 68.713 46.2719 69.2732 46.3916 69.5683C46.6596 70.2293 46.8997 70.2426 47.4577 69.6279C48.0659 68.9576 48.2189 69.0253 48.4001 70.045C48.4877 70.5365 48.6187 71.1401 48.6916 71.3861L48.824 71.8333L49.3405 70.9156L49.8566 69.9981L50.992 69.5289L52.1274 69.0596L53.1892 69.574C53.8533 69.8958 54.4025 70.3809 54.6562 70.8696L55.0614 71.6509L55.2417 71.1756C55.3409 70.9144 55.5128 70.3418 55.6237 69.9034L55.8255 69.1063L56.4957 69.6326C56.8641 69.922 57.1914 70.1199 57.2227 70.0722C57.2543 70.0243 57.5729 69.5294 57.9309 68.9723C58.7499 67.6973 58.9319 67.7037 59.2637 69.0181C59.6479 70.5392 59.5934 72.9975 59.1334 74.8976C58.634 76.9611 58.4334 76.969 58.2756 74.9316C58.2072 74.0466 58.0164 73.0008 57.8517 72.6075L57.5524 71.8924L57.2502 73.7994C57.084 74.8482 56.728 76.3237 56.4588 77.0784C55.9336 78.5523 53.8892 82.0609 54.1333 81.0697C54.2139 80.742 54.3456 79.7766 54.4259 78.9244C54.6017 77.0608 54.3356 77.2081 53.5662 79.4011ZM69.8849 62.5432C69.5561 64.106 68.146 67.919 66.9375 70.5134C66.4359 71.5904 65.8454 72.7162 65.6252 73.0159L65.225 73.5605L65.3627 73.0838C66.3233 69.7566 66.451 62.6245 65.6065 59.4763C65.4762 58.9907 66.4902 57.4704 66.9442 57.4704C67.1804 57.4704 67.8183 59.1142 68.1009 60.4501L68.3026 61.4036L68.5788 60.4255C68.7306 59.8875 68.9247 58.9395 69.0101 58.3188C69.2193 56.7975 69.68 56.6695 70.7088 57.8468L71.5254 58.7815L70.4097 56.5851C69.2155 54.234 68.0385 52.4646 67.6688 52.4646C67.2918 52.4646 64.7977 55.6924 63.9442 57.285C63.1564 58.7552 63.0778 58.77 62.7947 57.5002C62.3794 55.6383 66.2542 49.8425 67.9141 49.8425C69.1464 49.8425 73.5717 56.3985 75.114 60.5087C75.8755 62.5382 75.6551 65.0213 74.463 67.8382L74.0602 68.7902L73.6248 67.0811C73.1096 65.0583 72.7063 64.2154 71.4497 62.5358C70.2906 60.9866 70.2122 60.9871 69.8849 62.5432ZM38.3901 59.4644C37.7015 61.9037 37.626 68.6289 38.2552 71.4755C38.4075 72.1639 38.4917 72.8476 38.4424 72.9949C38.1893 73.7519 33.9496 63.4261 33.9496 62.0526C33.9496 59.8811 30.9205 64.2042 30.2848 67.283L29.9728 68.7936L29.453 67.6356C29.1671 66.9989 28.7573 65.612 28.5424 64.5539L28.1512 62.6302L28.5684 61.302C29.8936 57.0823 34.6855 49.843 36.1533 49.843C36.4088 49.843 37.2604 50.4835 38.0458 51.2665L39.4736 52.6901L40.2979 54.4688C41.5995 57.2776 41.425 59.7512 40.0904 57.4108C38.896 55.3162 36.2953 52.1755 36.011 52.4839C35.3829 53.1654 32.5152 58.1364 32.5152 58.5438C32.5152 58.6184 32.8492 58.3002 33.2573 57.8368C33.6654 57.3732 34.1474 56.9941 34.3286 56.9941C34.6645 56.9941 34.6977 57.0914 35.1422 59.3779C35.2823 60.0989 35.5001 60.8498 35.6261 61.0465L35.8551 61.404L35.8587 60.7917C35.8637 59.9297 36.5382 57.7629 36.8638 57.5622C37.0182 57.4671 37.4378 57.7319 37.8347 58.1748L38.5338 58.955L38.3901 59.4644ZM58.1898 64.6221C59.1418 65.1148 59.0658 65.2931 57.4866 66.2714L56.1088 67.125L52.2613 67.1774C48.1826 67.2332 47.911 67.1822 46.083 66.0134C44.7133 65.1377 44.6884 64.9887 45.8439 64.5808L46.7405 64.2645H52.1198H57.4991L58.1898 64.6221ZM48.8716 61.6906C48.7289 61.9168 48.0834 62.2791 47.4371 62.496C44.6172 63.4419 43.7849 63.2171 42.7705 61.2353L42.3182 60.3516L42.5415 59.2091C42.6641 58.5808 42.831 57.6604 42.9123 57.1636L43.0598 56.2604L44.1393 57.2077C45.744 58.6163 46.9135 58.7648 47.1476 57.5901L47.2428 57.1133L47.6643 57.9054C47.9547 58.4513 48.0348 58.929 47.9217 59.442L47.7577 60.1867L48.4446 60.733L49.1313 61.2794L48.8716 61.6906ZM61.2031 61.2879C60.9485 61.7859 60.4536 62.4178 60.1034 62.6924C59.8457 62.8946 59.6824 63.0254 59.4959 63.09C59.1535 63.2085 58.7334 63.1039 57.5077 62.8083C55.0643 62.2193 54.386 61.4512 55.6056 60.6543L56.2224 60.2515L56.0742 59.4637C55.9749 58.9359 56.0617 58.4182 56.3376 57.8947L56.7496 57.1133L56.8956 57.7081C56.9762 58.0351 57.2284 58.3386 57.4565 58.3822C57.9823 58.4833 59.8717 57.3898 60.3515 56.7069C60.8309 56.0247 60.855 56.0681 61.2918 58.3905L61.6665 60.3826L61.2031 61.2879ZM80.3807 55.9215L80.2681 59.0446C80.2062 60.7623 80.0523 62.3516 79.9267 62.5754L79.6982 62.9828L79.4194 62.0553C78.5475 59.1536 75.2255 53.4274 72.3656 49.8969C71.1807 48.434 70.7759 47.957 70.8613 47.5947C70.9074 47.3975 71.0987 47.2345 71.3882 46.9649C73.2707 45.2114 73.1122 42.6825 70.987 40.5636C70.0388 39.6185 69.9334 39.7134 70.5502 40.9565C70.8706 41.6017 71.0109 42.2847 70.9619 42.9583L70.8873 43.9807L68.4965 45.7756C65.4463 48.0654 63.8794 49.6516 62.9891 51.3507C62.3938 52.4868 61.9218 53.0376 61.9218 52.5967C61.9218 52.0551 60.8419 47.1344 60.3743 45.5459C60.0474 44.4353 59.7778 43.456 59.7751 43.3698C59.7723 43.2835 60.511 43.5917 61.4166 44.0551L63.0634 44.8975L64.7638 45.0186C66.5825 45.1485 67.173 44.773 65.5558 44.5154C64.5147 44.3492 61.6827 43.0027 61.6827 42.6737C61.6827 42.5528 62.355 42.4534 63.177 42.453L64.6712 42.452L65.4533 41.9767C66.7735 41.1741 67.9297 38.9749 68.493 36.1943L68.6264 35.5366L69.697 35.251C70.9842 34.9078 71.0384 34.6761 69.9387 34.2179C67.765 33.3124 65.2214 34.0599 62.2735 36.4703C59.6195 38.6404 58.1142 39.5935 57.3403 39.5935H56.6377L56.2912 38.7668C55.5236 36.9349 55.9819 35.8124 58.6402 33.0125C59.6847 31.9122 60.4696 31.0121 60.3843 31.0121C59.7617 31.0121 57.9079 32.3427 56.2131 34.006L54.201 35.9807L54.3561 37.296C54.4616 38.1911 54.4221 38.6662 54.2325 38.783C53.7859 39.0581 52.8824 37.7952 52.711 36.656L52.5547 35.6167L53.161 33.8506L53.7673 32.0847L52.8657 33.1109L51.9641 34.1371L51.0853 33.1109L50.2064 32.0847L50.7149 33.3958C50.9961 34.1209 51.2356 35.313 51.2505 36.0632L51.2777 37.4197L50.7768 38.0893C50.5012 38.4576 50.0838 38.7966 49.8492 38.8426L49.4225 38.926L49.5853 37.491L49.7481 36.056L48.2443 34.4475C46.882 32.9906 44.259 31.0121 43.6898 31.0121C43.565 31.0121 44.2985 31.8969 45.3198 32.9786C47.9999 35.8169 48.5723 37.4576 47.4429 39.0652C46.7165 40.0988 45.567 39.6051 42.0781 36.7621C41.0919 35.9583 39.6175 34.9671 38.8015 34.559L37.3178 33.8175L36.1717 33.8201C34.9681 33.8229 32.8224 34.5331 33.1569 34.8179C33.264 34.9092 33.7969 35.1102 34.341 35.2641L35.3301 35.5442L35.4848 36.5721C35.5697 37.1373 35.9658 38.2898 36.3651 39.1329C37.6047 41.7517 38.562 42.4496 40.9306 42.4616L42.4368 42.4687L41.791 43.0356C41.1013 43.641 38.7815 44.599 38.0049 44.599C37.7467 44.599 37.5356 44.7206 37.5356 44.8693V45.1397L39.2226 45.0195L40.9095 44.8991L42.5697 44.0775C43.4827 43.6255 44.2287 43.3168 44.2268 43.391C44.2251 43.4653 43.9623 44.3423 43.6429 45.3394C43.3235 46.3368 42.8289 48.3748 42.5441 49.8685C42.2591 51.3624 41.9942 52.6191 41.9553 52.6613C41.9163 52.7034 41.4049 51.9988 40.8189 51.0956C39.493 49.0521 38.5309 48.1019 35.5034 45.8457C32.3335 43.4837 32.2787 43.3626 33.3431 41.083C34.0218 39.6292 33.8263 39.4845 32.7832 40.669C30.7233 43.0084 30.6377 45.0703 32.5259 46.8741C33.3904 47.6998 33.4022 47.9327 32.6146 48.6692C30.5537 50.5974 26.5049 57.0611 25.096 60.6727C24.6578 61.7962 24.2231 62.7153 24.1306 62.7153C23.8382 62.7153 23.3682 57.9979 23.5426 56.8147C23.6343 56.1923 23.9692 55.0312 24.287 54.2343C24.6045 53.4374 24.8644 52.6543 24.8644 52.4944C24.8644 52.0153 25.5864 50.745 26.4922 49.6301L27.3434 48.583L25.5173 48.6998L23.6913 48.8166L23.8959 48.4361C24.0084 48.2266 24.7563 47.3417 25.5579 46.4698L27.0154 44.8841L25.8914 45.2214C25.2732 45.4069 23.7944 45.6686 22.6052 45.8031L20.443 46.0471L18.2777 45.7895C17.0867 45.6476 15.3178 45.3475 14.3467 45.1225L12.5811 44.7135L14.9777 43.6932C23.0454 40.2585 29.0671 35.2496 31.8199 29.6836L32.8236 27.6541L32.6828 25.6978C32.6051 24.6218 32.3086 22.9929 32.0236 22.078L31.5058 20.4145L30.5767 19.4883L29.6476 18.562L28.5113 18.7293C26.2197 19.0667 22.8937 20.7307 20.5167 22.729C18.995 24.0084 19.1056 24.0213 21.7694 22.8757C23.0114 22.3416 24.8103 21.7047 25.7669 21.4605L27.5064 21.0166L28.0855 21.2361C29.8635 21.91 30.6702 26.3602 29.4112 28.5487L28.7025 29.7806L27.0823 29.9754C24.5954 30.2743 16.6348 30.188 14.2253 29.8362C9.05162 29.0808 5.46228 27.226 3.47227 24.2798C2.43074 22.7378 2.37631 23.2785 3.37288 25.2668C5.94436 30.3975 11.4602 33.3543 21.4575 34.9609L22.2345 35.0856V35.7471C22.2345 37.2093 19.195 39.7541 15.1892 41.6461C12.398 42.9643 12.1191 42.8882 14.2319 41.3851C16.2311 39.9627 18.8874 37.4967 18.8874 37.0629C18.8874 36.8581 18.6264 36.7328 18.2008 36.7328C17.8232 36.7328 16.4831 36.472 15.2228 36.1533C9.05205 34.5924 3.51461 30.6097 1.29781 26.1376L0.390899 24.308L0.287002 22.3343L0.183105 20.3607L0.588014 18.9522C2.20538 13.3264 7.35144 8.02558 14.7883 4.32476C17.7675 2.84221 18.0391 2.87931 15.7182 4.45174C14.7656 5.09711 12.9596 6.64419 11.7049 7.88969L9.42358 10.1542L8.55844 11.8228C8.08262 12.7405 7.56169 14.164 7.40081 14.986L7.10832 16.4806L7.38181 17.8383C7.75035 19.668 8.55983 20.8174 9.96584 21.5075L11.1172 22.0726L13.269 22.0522C16.0752 22.0256 16.7815 21.8088 21.7563 19.4476C24.0575 18.3555 26.3849 17.3454 26.9286 17.2031C27.472 17.0608 28.0501 16.7842 28.2129 16.5885C28.6569 16.0553 30.7247 16.1519 32.2758 16.7783L33.5908 17.3094L34.2368 18.4992C34.5921 19.1537 35.0657 20.361 35.2892 21.1823C35.8037 23.0718 35.9084 22.9457 36.0808 20.2279L36.2207 18.0247L37.6972 16.9141C39.0189 15.9199 40.8156 15.0614 42.3672 14.6827C43.5674 14.3898 48.929 18.2932 50.8132 20.8316L51.9658 22.3843L52.6849 21.3943C54.2373 19.2568 57.7217 16.3435 60.325 15.0063L61.2388 14.537L62.4767 14.9408C64.2261 15.5113 65.2034 16.0369 66.6437 17.1821L67.8988 18.1802L67.9024 19.8881C67.9043 20.8275 67.973 21.8462 68.055 22.152L68.2044 22.708L68.8996 20.5436C69.2819 19.3532 69.8318 18.1096 70.1216 17.78C70.7702 17.0426 73.0257 16.2327 74.4308 16.2327H75.4758L75.887 16.6858C76.1132 16.935 76.6946 17.2102 77.1792 17.2973C77.6636 17.3844 79.943 18.3527 82.2441 19.4491C87.2122 21.8161 87.9204 22.0324 90.7313 22.0396L92.883 22.045L93.8393 21.5443C99.3322 18.6683 96.6533 10.3007 88.4026 4.56306C86.0288 2.91224 86.1832 2.81616 88.9731 4.20815C97.0473 8.23692 102.578 14.2632 103.586 20.1303L103.858 21.715L103.586 23.2998C102.557 29.2905 94.7186 35.4613 86.6669 36.6198C86.0094 36.7144 85.3331 36.8655 85.1636 36.9554L84.8556 37.1192L86.2394 38.4693C87.0006 39.2121 88.4839 40.4795 89.5359 41.2859C91.5123 42.8012 91.3677 42.8785 88.7488 41.7071C84.88 39.9763 81.0263 36.4953 81.7272 35.3647C81.8143 35.2241 83.1342 34.8863 84.6605 34.6139C93.7164 32.9975 99.9347 28.7857 101.241 23.3836L101.386 22.7877L100.919 23.6331C99.2399 26.6761 95.5803 28.7971 90.3726 29.7456L88.1014 30.1592L82.483 30.1246C79.3929 30.1058 76.488 29.9987 76.0278 29.8872L75.191 29.6841L74.5393 28.5003C73.3104 26.2692 74.1078 22.0129 75.9078 21.1952L76.4794 20.9355L78.5226 21.5706C79.6463 21.9199 81.4511 22.578 82.5332 23.0331C84.8807 24.0201 84.9615 24.0321 84.037 23.2554C80.8938 20.6145 77.3294 18.8546 75.1241 18.8546H73.9657L73.3506 19.5101C72.0646 20.8804 71.2562 23.5034 71.2498 26.324L71.2462 27.9535L72.4911 30.3763L73.7357 32.7994L76.2566 35.313C79.6836 38.7303 84.3901 41.7765 89.7168 44.0246L91.3323 44.7063L90.8556 44.882C90.5933 44.9788 88.9164 45.2972 87.129 45.5895L83.8792 46.1213L81.4478 45.8488C80.1106 45.6991 78.5592 45.415 78.0002 45.2174C76.6513 44.7406 76.7144 44.9452 78.4361 46.6324C79.2346 47.4149 79.9827 48.2263 80.0984 48.4359L80.309 48.8163L78.5269 48.7024C76.4605 48.5701 76.4443 48.5946 77.677 49.991C78.1896 50.5714 78.6816 51.3388 78.7708 51.6961C78.8597 52.0534 79.2583 53.1504 79.6566 54.1337L80.3807 55.9215ZM28.3267 39.8511C26.8117 41.0583 23.1455 42.8163 19.8439 43.919L18.5289 44.358L20.2562 44.2389C23.1846 44.037 26.6991 42.2933 28.1785 40.3081L28.8001 39.4738L28.3267 39.8511ZM76.5469 41.1338C77.9644 42.4046 79.9839 43.4975 81.8312 43.9936C82.5184 44.1781 83.5648 44.3282 84.1565 44.3273L85.2324 44.3244L83.3198 43.663C80.7901 42.7881 77.9993 41.489 76.6267 40.5474C75.0854 39.49 75.0449 39.7875 76.5469 41.1338ZM39.0916 29.6924C40.0108 30.0376 40.8634 30.4199 40.9863 30.5425C41.1092 30.665 41.2705 30.7041 41.3451 30.6295C41.4197 30.5549 41.2493 30.3153 40.9667 30.0972C40.6838 29.8791 40.0577 29.3949 39.575 29.0212L38.6973 28.3421L38.8604 27.3526C38.9503 26.8086 39.1683 25.9383 39.345 25.4191C39.793 24.1026 39.6199 24.1096 38.6373 25.4477C37.7147 26.7042 37.0171 28.415 37.2645 28.8143C37.3501 28.9523 38.1723 29.3475 39.0916 29.6924ZM64.0001 29.3115C63.4338 29.7001 62.8167 30.2023 62.629 30.4281L62.2876 30.8381L63.4794 30.2366C64.135 29.9058 65.1286 29.4986 65.6876 29.332L66.7037 29.029V28.4629C66.7037 27.7943 65.7667 25.9438 64.9168 24.9331C64.2125 24.096 64.2103 24.1024 64.6741 25.6265C64.8699 26.2701 65.0301 27.2036 65.0301 27.7008V28.605L64.0001 29.3115ZM55.0755 55.7398C54.4525 56.5861 53.6867 57.3753 53.3742 57.4938C51.8912 58.0559 50.2774 57.6339 49.4822 56.4764C47.6399 53.794 46.4418 53.1912 45.053 54.2471L44.2767 54.8374L44.134 54.466C43.6398 53.1821 44.2002 51.7857 45.4731 51.1295C46.4581 50.6215 47.3159 50.8227 49.3244 52.0327L50.9655 53.0212H51.9995H53.0335L54.6839 52.0436C56.7663 50.8103 57.3324 50.6708 58.4191 51.1235C59.5267 51.585 60.1409 52.7645 59.9107 53.988C59.7225 54.9875 59.6869 55.004 59.0591 54.378C57.8173 53.1399 56.7118 53.5177 55.0755 55.7398ZM56.4784 49.5407L54.688 50.5262L52.8977 51.5116L51.9708 51.5001C51.3628 51.4925 50.4405 51.1643 49.291 50.5467L47.538 49.6046H46.466C45.8764 49.6046 45.186 49.7157 44.9316 49.8513C44.6772 49.987 44.4694 50.0139 44.4697 49.9109C44.4718 49.2556 45.7449 45.1823 46.3369 43.9366L47.0479 42.4401L49.0459 41.4363C51.6172 40.1448 52.3481 40.1381 54.9082 41.3844L56.86 42.3343L57.5878 43.8837C57.988 44.7359 58.58 46.4204 58.9032 47.6271L59.4909 49.8213L57.9846 49.6811L56.4784 49.5407ZM48.9519 47.6674C49.4449 47.9184 50.0534 48.3496 50.3039 48.6256C50.9239 49.3093 51.0033 49.2564 50.5803 48.4411C50.1638 47.638 48.8857 46.5058 48.3956 46.5058C47.7288 46.5058 48.0702 47.2187 48.9519 47.6674ZM55.6048 46.5058C55.0963 46.5058 53.8282 47.6516 53.3972 48.5007L53.018 49.2471L53.7046 48.6187C54.0821 48.2731 54.7406 47.8144 55.168 47.5994C55.9532 47.2044 56.2322 46.5058 55.6048 46.5058ZM38.8125 36.4941C39.5293 36.4941 42.0263 37.9716 43.0247 38.9863L44.0905 40.0697H42.3995H40.7085L40.0718 39.5703C38.9684 38.705 38.0633 36.4941 38.8125 36.4941ZM65.2094 36.4965C65.8843 36.4913 64.9072 38.8028 63.9012 39.592L63.292 40.0697H61.6507C60.7479 40.0697 60.0094 39.9892 60.0094 39.8909C60.0099 39.2469 64.2113 36.5046 65.2094 36.4965ZM56.4232 4.29666C56.4232 7.07672 55.4325 11.2449 53.8132 15.279C53.313 16.5245 52.6833 17.905 52.4134 18.3467L51.923 19.1498L51.1823 17.8699C50.2231 16.2124 49.8193 14.8484 49.2508 11.3459C48.6796 7.82685 48.2216 6.23121 47.3183 4.61548C46.9348 3.92918 46.6209 3.31018 46.6209 3.24C46.6209 2.92349 48.7506 4.21919 49.6448 5.07978L50.6365 6.03415L50.8189 5.472C50.9191 5.16281 51.1257 3.94444 51.278 2.76449L51.5551 0.619141L52.2869 2.04937C52.9042 3.25595 53.5839 5.51955 53.8471 7.24727L53.9129 7.67773L54.5801 6.65134C54.9471 6.08683 55.4296 5.11544 55.6522 4.49269C56.1447 3.11564 56.4232 3.04485 56.4232 4.29666ZM61.354 12.02C59.7546 12.2386 58.6596 12.8899 56.9083 14.6647C56.0574 15.527 55.295 16.2325 55.2139 16.2325C54.9206 16.2325 57.4503 9.18595 57.9328 8.65903C58.6447 7.88194 60.6502 6.96676 62.0416 6.78409L63.237 6.62715L61.7413 7.75627C60.1203 8.97998 59.5313 9.66518 59.5313 10.3262C59.5313 10.5141 59.5193 10.6369 59.5733 10.6835C59.6711 10.768 59.9858 10.603 60.9808 10.1235C63.5335 8.89328 66.6451 8.43091 68.2166 9.04822L68.6539 9.21995L66.6867 9.78672C65.6046 10.0984 64.2113 10.6944 63.5901 11.1111C62.9305 11.5538 62.001 11.9316 61.354 12.02ZM38.6117 12.3358C38.6117 12.5723 37.8567 13.1832 35.7428 14.6575C34.9648 15.2 34.3592 15.2571 33.4715 14.872L32.6347 14.5089L30.1244 14.5218L27.614 14.5347L28.3313 14.148C28.7257 13.9353 29.9092 13.5354 30.9611 13.2594C32.1362 12.9511 33.2793 12.4625 33.9257 11.9921L34.9777 11.2266L35.9579 11.227C37.0202 11.2274 38.6117 11.8923 38.6117 12.3358ZM41.4001 6.2208C45.7672 6.2208 47.2963 8.03283 48.3906 14.5042C48.6892 16.27 47.7439 15.1341 45.9606 11.5842C45.3019 10.2731 44.5294 8.9323 44.244 8.60454L43.7249 8.00861L43.9968 8.56535C44.1464 8.87157 44.2129 9.17783 44.1445 9.24602C44.0027 9.3874 41.4735 7.4901 40.7862 6.7266L40.3307 6.2208H41.4001ZM73.8087 14.5533C72.0794 14.5604 70.9481 14.6816 70.3724 14.9214C69.8734 15.1293 69.6107 15.2481 69.3563 15.232C69.0364 15.2118 68.7301 14.978 67.9849 14.4393C67.3458 13.9775 66.4689 13.3743 66.0362 13.0988C65.6032 12.8233 65.2869 12.4771 65.333 12.3294C65.4805 11.8582 67.0291 11.2274 68.0392 11.227L69.0161 11.2266L70.0714 12.0309C70.7931 12.581 71.693 12.9681 72.9198 13.256C73.906 13.4875 75.0894 13.8717 75.5496 14.1098L76.3864 14.5428L73.8087 14.5533ZM44.3831 11.3888C44.562 11.8156 44.7083 12.2755 44.7083 12.4108C44.7083 12.7226 44.3967 12.7277 44.0888 12.4208C43.9588 12.2909 43.3185 12.114 42.6663 12.0277C41.9694 11.9354 41.0864 11.5992 40.5244 11.2119C39.6214 10.5899 37.5751 9.78687 35.9818 9.42926L35.2646 9.26829L35.8623 9.03745C36.191 8.91049 37.3745 8.84294 38.4922 8.88744L40.5244 8.96825L42.2912 9.79054L44.0577 10.6128L44.3831 11.3888ZM60.6071 6.45919C60.6729 6.45919 60.7267 6.51278 60.7267 6.57838C60.7267 6.64395 60.6729 6.69756 60.6071 6.69756C60.5414 6.69756 60.4876 6.64395 60.4876 6.57838C60.4876 6.51278 60.5414 6.45919 60.6071 6.45919Z" fill="url(#paint0_linear_384_242)"/>
</g>
<defs>
<linearGradient id="paint0_linear_384_242" x1="52.1197" y1="-7.12795" x2="52.1197" y2="82.5" gradientUnits="userSpaceOnUse">
<stop stop-color="#C8AA4E"/>
<stop offset="0.671568" stop-color="#886125"/>
</linearGradient>
<clipPath id="clip0_384_242">
<rect width="104" height="82" fill="white" transform="translate(0 0.5)"/>
</clipPath>
</defs>
</svg>
