<svg width="29" height="27" viewBox="0 0 29 27" fill="none" xmlns="http://www.w3.org/2000/svg">
<path d="M14.5 8.44556H25.7" stroke="#D9D9D9" stroke-linecap="round" stroke-linejoin="round"/>
<path d="M3.30078 8.44556H5.54078" stroke="#D9D9D9" stroke-linecap="round" stroke-linejoin="round"/>
<path d="M23.4609 18.1656H25.7009" stroke="#D9D9D9" stroke-linecap="round" stroke-linejoin="round"/>
<path d="M3.30078 18.1656H14.5008" stroke="#D9D9D9" stroke-linecap="round" stroke-linejoin="round"/>
<path d="M10.0191 12.7656C12.4933 12.7656 14.4991 10.8314 14.4991 8.44561C14.4991 6.05974 12.4933 4.12561 10.0191 4.12561C7.54483 4.12561 5.53906 6.05974 5.53906 8.44561C5.53906 10.8314 7.54483 12.7656 10.0191 12.7656Z" stroke="#D9D9D9" stroke-linecap="round" stroke-linejoin="round"/>
<path d="M18.98 22.4856C21.4542 22.4856 23.46 20.5514 23.46 18.1656C23.46 15.7798 21.4542 13.8456 18.98 13.8456C16.5058 13.8456 14.5 15.7798 14.5 18.1656C14.5 20.5514 16.5058 22.4856 18.98 22.4856Z" stroke="#D9D9D9" stroke-linecap="round" stroke-linejoin="round"/>
</svg>
