<svg width="1920" height="1080" viewBox="0 0 1920 1080" fill="none" xmlns="http://www.w3.org/2000/svg">
<path fill-rule="evenodd" clip-rule="evenodd" d="M0 0H1920V1080H0V0ZM778.141 596H780.391L785.594 608.344L791.047 596H791.438L796.875 608.344L802.172 596H804.453L797.078 613H796.656L791.25 600.828L785.797 613H785.391L778.141 596ZM821.344 607.359L823.188 608.328C822.583 609.516 821.885 610.474 821.094 611.203C820.302 611.932 819.411 612.49 818.422 612.875C817.432 613.25 816.312 613.438 815.062 613.438C812.292 613.438 810.125 612.531 808.562 610.719C807 608.896 806.219 606.839 806.219 604.547C806.219 602.391 806.88 600.469 808.203 598.781C809.88 596.635 812.125 595.562 814.938 595.562C817.833 595.562 820.146 596.661 821.875 598.859C823.104 600.411 823.729 602.349 823.75 604.672H808.469C808.51 606.651 809.141 608.276 810.359 609.547C811.578 610.807 813.083 611.438 814.875 611.438C815.74 611.438 816.578 611.286 817.391 610.984C818.214 610.682 818.911 610.281 819.484 609.781C820.057 609.281 820.677 608.474 821.344 607.359ZM821.344 602.781C821.052 601.615 820.625 600.682 820.062 599.984C819.51 599.286 818.776 598.724 817.859 598.297C816.943 597.87 815.979 597.656 814.969 597.656C813.302 597.656 811.87 598.193 810.672 599.266C809.797 600.047 809.135 601.219 808.688 602.781H821.344ZM827.984 613V589.438H830.156V598.922C831.073 597.797 832.099 596.958 833.234 596.406C834.37 595.844 835.615 595.562 836.969 595.562C839.375 595.562 841.427 596.438 843.125 598.188C844.833 599.927 845.688 602.042 845.688 604.531C845.688 606.99 844.828 609.089 843.109 610.828C841.391 612.568 839.323 613.438 836.906 613.438C835.521 613.438 834.266 613.141 833.141 612.547C832.016 611.953 831.021 611.062 830.156 609.875V613H827.984ZM836.734 611.328C837.953 611.328 839.078 611.031 840.109 610.438C841.141 609.833 841.958 608.99 842.562 607.906C843.177 606.823 843.484 605.677 843.484 604.469C843.484 603.26 843.177 602.109 842.562 601.016C841.948 599.922 841.12 599.073 840.078 598.469C839.047 597.854 837.943 597.547 836.766 597.547C835.568 597.547 834.427 597.854 833.344 598.469C832.271 599.073 831.443 599.891 830.859 600.922C830.286 601.953 830 603.115 830 604.406C830 606.375 830.646 608.021 831.938 609.344C833.24 610.667 834.839 611.328 836.734 611.328ZM858.234 597.859L856.828 599.312C855.661 598.177 854.521 597.609 853.406 597.609C852.698 597.609 852.089 597.844 851.578 598.312C851.078 598.781 850.828 599.328 850.828 599.953C850.828 600.505 851.036 601.031 851.453 601.531C851.87 602.042 852.745 602.641 854.078 603.328C855.703 604.172 856.807 604.984 857.391 605.766C857.964 606.557 858.25 607.448 858.25 608.438C858.25 609.833 857.76 611.016 856.781 611.984C855.802 612.953 854.578 613.438 853.109 613.438C852.13 613.438 851.193 613.224 850.297 612.797C849.411 612.37 848.677 611.781 848.094 611.031L849.469 609.469C850.583 610.729 851.766 611.359 853.016 611.359C853.891 611.359 854.635 611.078 855.25 610.516C855.865 609.953 856.172 609.292 856.172 608.531C856.172 607.906 855.969 607.349 855.562 606.859C855.156 606.38 854.24 605.776 852.812 605.047C851.281 604.255 850.24 603.474 849.688 602.703C849.135 601.932 848.859 601.052 848.859 600.062C848.859 598.771 849.297 597.698 850.172 596.844C851.057 595.99 852.172 595.562 853.516 595.562C855.078 595.562 856.651 596.328 858.234 597.859ZM862.891 589C863.391 589 863.818 589.177 864.172 589.531C864.526 589.885 864.703 590.312 864.703 590.812C864.703 591.302 864.526 591.724 864.172 592.078C863.818 592.432 863.391 592.609 862.891 592.609C862.401 592.609 861.979 592.432 861.625 592.078C861.271 591.724 861.094 591.302 861.094 590.812C861.094 590.312 861.271 589.885 861.625 589.531C861.979 589.177 862.401 589 862.891 589ZM861.797 596H864V613H861.797V596ZM870.438 589.688H872.641V596H876.109V597.875H872.641V613H870.438V597.875H867.453V596H870.438V589.688ZM893.688 607.359L895.531 608.328C894.927 609.516 894.229 610.474 893.438 611.203C892.646 611.932 891.755 612.49 890.766 612.875C889.776 613.25 888.656 613.438 887.406 613.438C884.635 613.438 882.469 612.531 880.906 610.719C879.344 608.896 878.562 606.839 878.562 604.547C878.562 602.391 879.224 600.469 880.547 598.781C882.224 596.635 884.469 595.562 887.281 595.562C890.177 595.562 892.49 596.661 894.219 598.859C895.448 600.411 896.073 602.349 896.094 604.672H880.812C880.854 606.651 881.484 608.276 882.703 609.547C883.922 610.807 885.427 611.438 887.219 611.438C888.083 611.438 888.922 611.286 889.734 610.984C890.557 610.682 891.255 610.281 891.828 609.781C892.401 609.281 893.021 608.474 893.688 607.359ZM893.688 602.781C893.396 601.615 892.969 600.682 892.406 599.984C891.854 599.286 891.12 598.724 890.203 598.297C889.286 597.87 888.323 597.656 887.312 597.656C885.646 597.656 884.214 598.193 883.016 599.266C882.141 600.047 881.479 601.219 881.031 602.781H893.688ZM909.828 589C910.328 589 910.755 589.177 911.109 589.531C911.464 589.885 911.641 590.312 911.641 590.812C911.641 591.302 911.464 591.724 911.109 592.078C910.755 592.432 910.328 592.609 909.828 592.609C909.339 592.609 908.917 592.432 908.562 592.078C908.208 591.724 908.031 591.302 908.031 590.812C908.031 590.312 908.208 589.885 908.562 589.531C908.917 589.177 909.339 589 909.828 589ZM908.734 596H910.938V613H908.734V596ZM915.469 596H917.656V599.047C918.531 597.88 919.5 597.01 920.562 596.438C921.625 595.854 922.781 595.562 924.031 595.562C925.302 595.562 926.427 595.885 927.406 596.531C928.396 597.177 929.125 598.047 929.594 599.141C930.062 600.234 930.297 601.938 930.297 604.25V613H928.125V604.891C928.125 602.932 928.042 601.625 927.875 600.969C927.615 599.844 927.125 599 926.406 598.438C925.688 597.865 924.75 597.578 923.594 597.578C922.271 597.578 921.083 598.016 920.031 598.891C918.99 599.766 918.302 600.849 917.969 602.141C917.76 602.984 917.656 604.526 917.656 606.766V613H915.469V596ZM943.906 596H946.078V599.125C946.943 597.938 947.938 597.047 949.062 596.453C950.188 595.859 951.443 595.562 952.828 595.562C955.245 595.562 957.312 596.432 959.031 598.172C960.75 599.911 961.609 602.005 961.609 604.453C961.609 606.953 960.755 609.078 959.047 610.828C957.349 612.568 955.297 613.438 952.891 613.438C951.536 613.438 950.292 613.156 949.156 612.594C948.021 612.031 946.995 611.193 946.078 610.078V619.219H943.906V596ZM952.656 597.672C950.76 597.672 949.161 598.333 947.859 599.656C946.568 600.979 945.922 602.625 945.922 604.594C945.922 605.885 946.208 607.047 946.781 608.078C947.365 609.109 948.193 609.927 949.266 610.531C950.349 611.135 951.49 611.438 952.688 611.438C953.865 611.438 954.969 611.135 956 610.531C957.042 609.917 957.87 609.062 958.484 607.969C959.099 606.875 959.406 605.729 959.406 604.531C959.406 603.323 959.099 602.177 958.484 601.094C957.88 600.01 957.062 599.172 956.031 598.578C955 597.974 953.875 597.672 952.656 597.672ZM964.891 596H967.125V598.484C967.792 597.505 968.495 596.776 969.234 596.297C969.974 595.807 970.745 595.562 971.547 595.562C972.151 595.562 972.797 595.755 973.484 596.141L972.344 597.984C971.885 597.786 971.5 597.688 971.188 597.688C970.458 597.688 969.755 597.99 969.078 598.594C968.401 599.188 967.885 600.115 967.531 601.375C967.26 602.344 967.125 604.302 967.125 607.25V613H964.891V596ZM983.391 595.562C986.005 595.562 988.172 596.51 989.891 598.406C991.453 600.135 992.234 602.182 992.234 604.547C992.234 606.922 991.406 609 989.75 610.781C988.104 612.552 985.984 613.438 983.391 613.438C980.786 613.438 978.656 612.552 977 610.781C975.354 609 974.531 606.922 974.531 604.547C974.531 602.193 975.312 600.151 976.875 598.422C978.594 596.516 980.766 595.562 983.391 595.562ZM983.391 597.703C981.578 597.703 980.021 598.375 978.719 599.719C977.417 601.062 976.766 602.688 976.766 604.594C976.766 605.823 977.062 606.969 977.656 608.031C978.25 609.094 979.052 609.917 980.062 610.5C981.073 611.073 982.182 611.359 983.391 611.359C984.599 611.359 985.708 611.073 986.719 610.5C987.729 609.917 988.531 609.094 989.125 608.031C989.719 606.969 990.016 605.823 990.016 604.594C990.016 602.688 989.359 601.062 988.047 599.719C986.745 598.375 985.193 597.703 983.391 597.703ZM1013.28 589.438V613H1011.12V610.078C1010.21 611.193 1009.18 612.031 1008.03 612.594C1006.9 613.156 1005.65 613.438 1004.3 613.438C1001.89 613.438 999.833 612.568 998.125 610.828C996.427 609.078 995.578 606.953 995.578 604.453C995.578 602.005 996.438 599.911 998.156 598.172C999.875 596.432 1001.94 595.562 1004.36 595.562C1005.76 595.562 1007.02 595.859 1008.14 596.453C1009.28 597.047 1010.27 597.938 1011.12 599.125V589.438H1013.28ZM1004.53 597.672C1003.31 597.672 1002.19 597.974 1001.16 598.578C1000.12 599.172 999.302 600.01 998.688 601.094C998.083 602.177 997.781 603.323 997.781 604.531C997.781 605.729 998.089 606.875 998.703 607.969C999.318 609.062 1000.14 609.917 1001.17 610.531C1002.21 611.135 1003.33 611.438 1004.52 611.438C1005.71 611.438 1006.85 611.135 1007.92 610.531C1008.99 609.927 1009.82 609.109 1010.39 608.078C1010.97 607.047 1011.27 605.885 1011.27 604.594C1011.27 602.625 1010.61 600.979 1009.31 599.656C1008.02 598.333 1006.43 597.672 1004.53 597.672ZM1017.97 596H1020.17V603.938C1020.17 605.875 1020.28 607.208 1020.48 607.938C1020.8 608.979 1021.39 609.802 1022.27 610.406C1023.15 611.01 1024.2 611.312 1025.42 611.312C1026.64 611.312 1027.67 611.021 1028.52 610.438C1029.37 609.844 1029.96 609.068 1030.28 608.109C1030.5 607.453 1030.61 606.062 1030.61 603.938V596H1032.84V604.344C1032.84 606.688 1032.57 608.453 1032.02 609.641C1031.47 610.828 1030.65 611.76 1029.55 612.438C1028.45 613.104 1027.08 613.438 1025.42 613.438C1023.77 613.438 1022.38 613.104 1021.27 612.438C1020.16 611.76 1019.33 610.823 1018.78 609.625C1018.24 608.417 1017.97 606.604 1017.97 604.188V596ZM1054.22 599.531L1052.48 600.609C1050.98 598.62 1048.94 597.625 1046.34 597.625C1044.27 597.625 1042.55 598.292 1041.17 599.625C1039.81 600.958 1039.12 602.578 1039.12 604.484C1039.12 605.724 1039.44 606.891 1040.06 607.984C1040.7 609.078 1041.56 609.927 1042.66 610.531C1043.76 611.135 1044.99 611.438 1046.36 611.438C1048.86 611.438 1050.9 610.443 1052.48 608.453L1054.22 609.594C1053.41 610.812 1052.31 611.76 1050.94 612.438C1049.57 613.104 1048.02 613.438 1046.27 613.438C1043.58 613.438 1041.35 612.583 1039.58 610.875C1037.81 609.167 1036.92 607.089 1036.92 604.641C1036.92 602.995 1037.33 601.469 1038.16 600.062C1038.99 598.646 1040.13 597.542 1041.58 596.75C1043.03 595.958 1044.65 595.562 1046.44 595.562C1047.56 595.562 1048.65 595.734 1049.69 596.078C1050.74 596.422 1051.63 596.87 1052.36 597.422C1053.09 597.974 1053.71 598.677 1054.22 599.531ZM1060.34 589.688H1062.55V596H1066.02V597.875H1062.55V613H1060.34V597.875H1057.36V596H1060.34V589.688ZM1070.05 589C1070.55 589 1070.97 589.177 1071.33 589.531C1071.68 589.885 1071.86 590.312 1071.86 590.812C1071.86 591.302 1071.68 591.724 1071.33 592.078C1070.97 592.432 1070.55 592.609 1070.05 592.609C1069.56 592.609 1069.14 592.432 1068.78 592.078C1068.43 591.724 1068.25 591.302 1068.25 590.812C1068.25 590.312 1068.43 589.885 1068.78 589.531C1069.14 589.177 1069.56 589 1070.05 589ZM1068.95 596H1071.16V613H1068.95V596ZM1083.73 595.562C1086.35 595.562 1088.52 596.51 1090.23 598.406C1091.8 600.135 1092.58 602.182 1092.58 604.547C1092.58 606.922 1091.75 609 1090.09 610.781C1088.45 612.552 1086.33 613.438 1083.73 613.438C1081.13 613.438 1079 612.552 1077.34 610.781C1075.7 609 1074.88 606.922 1074.88 604.547C1074.88 602.193 1075.66 600.151 1077.22 598.422C1078.94 596.516 1081.11 595.562 1083.73 595.562ZM1083.73 597.703C1081.92 597.703 1080.36 598.375 1079.06 599.719C1077.76 601.062 1077.11 602.688 1077.11 604.594C1077.11 605.823 1077.41 606.969 1078 608.031C1078.59 609.094 1079.4 609.917 1080.41 610.5C1081.42 611.073 1082.53 611.359 1083.73 611.359C1084.94 611.359 1086.05 611.073 1087.06 610.5C1088.07 609.917 1088.88 609.094 1089.47 608.031C1090.06 606.969 1090.36 605.823 1090.36 604.594C1090.36 602.688 1089.7 601.062 1088.39 599.719C1087.09 598.375 1085.54 597.703 1083.73 597.703ZM1096.66 596H1098.84V599.047C1099.72 597.88 1100.69 597.01 1101.75 596.438C1102.81 595.854 1103.97 595.562 1105.22 595.562C1106.49 595.562 1107.61 595.885 1108.59 596.531C1109.58 597.177 1110.31 598.047 1110.78 599.141C1111.25 600.234 1111.48 601.938 1111.48 604.25V613H1109.31V604.891C1109.31 602.932 1109.23 601.625 1109.06 600.969C1108.8 599.844 1108.31 599 1107.59 598.438C1106.88 597.865 1105.94 597.578 1104.78 597.578C1103.46 597.578 1102.27 598.016 1101.22 598.891C1100.18 599.766 1099.49 600.849 1099.16 602.141C1098.95 602.984 1098.84 604.526 1098.84 606.766V613H1096.66V596ZM1118.59 609.562C1119.12 609.562 1119.58 609.75 1119.95 610.125C1120.33 610.5 1120.52 610.958 1120.52 611.5C1120.52 612.031 1120.33 612.49 1119.95 612.875C1119.58 613.25 1119.12 613.438 1118.59 613.438C1118.06 613.438 1117.61 613.25 1117.23 612.875C1116.86 612.49 1116.67 612.031 1116.67 611.5C1116.67 610.958 1116.86 610.5 1117.23 610.125C1117.61 609.75 1118.06 609.562 1118.59 609.562ZM1127.47 609.562C1128 609.562 1128.45 609.75 1128.83 610.125C1129.2 610.5 1129.39 610.958 1129.39 611.5C1129.39 612.031 1129.2 612.49 1128.83 612.875C1128.45 613.25 1128 613.438 1127.47 613.438C1126.94 613.438 1126.48 613.25 1126.11 612.875C1125.73 612.49 1125.55 612.031 1125.55 611.5C1125.55 610.958 1125.73 610.5 1126.11 610.125C1126.48 609.75 1126.94 609.562 1127.47 609.562ZM1136.34 609.562C1136.88 609.562 1137.33 609.75 1137.7 610.125C1138.08 610.5 1138.27 610.958 1138.27 611.5C1138.27 612.031 1138.08 612.49 1137.7 612.875C1137.33 613.25 1136.88 613.438 1136.34 613.438C1135.81 613.438 1135.36 613.25 1134.98 612.875C1134.61 612.49 1134.42 612.031 1134.42 611.5C1134.42 610.958 1134.61 610.5 1134.98 610.125C1135.36 609.75 1135.81 609.562 1136.34 609.562ZM960.778 579.865C961.158 579.24 961.827 577.707 962.266 576.458C963.394 573.245 963.784 573.029 963.526 575.76C963.408 577.009 963.215 578.424 963.097 578.904C962.739 580.357 965.737 575.214 966.507 573.055C966.901 571.948 967.423 569.786 967.667 568.249L968.11 565.454L968.549 566.502C968.79 567.079 969.07 568.611 969.17 569.908C969.402 572.894 969.696 572.883 970.428 569.858C971.102 567.074 971.182 563.471 970.619 561.242C970.132 559.315 969.866 559.306 968.665 561.175C968.14 561.991 967.673 562.716 967.627 562.787C967.581 562.856 967.101 562.566 966.561 562.142L965.578 561.371L965.282 562.539C965.12 563.182 964.868 564.021 964.722 564.404L964.458 565.1L963.864 563.955C963.492 563.239 962.687 562.528 961.713 562.056L960.156 561.303L958.492 561.99L956.827 562.678L956.07 564.023L955.313 565.367L955.119 564.712C955.012 564.352 954.82 563.467 954.692 562.747C954.426 561.252 954.202 561.153 953.31 562.135C952.492 563.036 952.14 563.017 951.747 562.048C951.571 561.616 951.042 560.795 950.57 560.224L949.712 559.185L949.277 561.272C948.729 563.897 949.001 568.096 949.853 570.17L950.499 571.742L950.742 569.122C950.876 567.681 951.136 566.109 951.32 565.629L951.654 564.755L951.869 566.153C952.462 569.989 952.838 571.44 953.713 573.256L954.666 575.236L954.905 572.343C955.176 569.058 955.447 568.439 955.756 570.397C956.387 574.404 958.874 581 959.753 581C959.937 581 960.399 580.489 960.778 579.865ZM981.87 563.433C983.641 559.631 985.709 554.043 986.191 551.753C986.671 549.472 986.786 549.471 988.485 551.742C990.327 554.203 990.919 555.438 991.674 558.403L992.312 560.908L992.903 559.513C994.651 555.384 994.974 551.745 993.857 548.771C991.596 542.747 985.108 533.139 983.302 533.139C980.868 533.139 975.187 541.633 975.796 544.362C976.211 546.223 976.326 546.201 977.481 544.046C978.732 541.712 982.389 536.982 982.942 536.982C983.484 536.982 985.209 539.575 986.96 543.021L988.596 546.24L987.399 544.87C985.89 543.144 985.215 543.332 984.908 545.561C984.783 546.471 984.499 547.86 984.276 548.649L983.871 550.082L983.575 548.685C983.161 546.727 982.226 544.318 981.879 544.318C981.214 544.318 979.727 546.546 979.918 547.258C981.156 551.872 980.969 562.324 979.561 567.2L979.359 567.899L979.946 567.101C980.268 566.661 981.134 565.012 981.87 563.433ZM939.818 564.843C938.896 560.671 939.006 550.815 940.016 547.24L940.227 546.494L939.202 545.35C938.62 544.701 938.005 544.313 937.778 544.453C937.301 544.747 936.312 547.922 936.305 549.185L936.299 550.083L935.964 549.559C935.779 549.271 935.459 548.17 935.254 547.114C934.602 543.763 934.554 543.62 934.061 543.62C933.796 543.62 933.089 544.176 932.491 544.855C931.892 545.534 931.403 546.001 931.403 545.891C931.403 545.294 935.607 538.009 936.528 537.01C936.945 536.558 940.758 541.161 942.509 544.231C944.465 547.661 944.721 544.035 942.813 539.919L941.604 537.312L939.511 535.226C938.36 534.078 937.111 533.14 936.736 533.14C934.585 533.14 927.559 543.749 925.616 549.933L925.005 551.88L925.578 554.699C925.893 556.25 926.494 558.282 926.913 559.216L927.675 560.913L928.133 558.699C929.065 554.187 933.506 547.851 933.506 551.034C933.506 553.046 939.721 568.179 940.093 567.07C940.165 566.854 940.041 565.852 939.818 564.843ZM968.014 557.216C970.329 555.783 970.44 555.521 969.044 554.799L968.032 554.275H960.145H952.258L950.944 554.739C949.25 555.336 949.286 555.555 951.294 556.838C953.975 558.551 954.373 558.626 960.353 558.544L965.994 558.467L968.014 557.216ZM953.28 551.683C954.227 551.365 955.174 550.834 955.383 550.503L955.764 549.9L954.757 549.1L953.75 548.299L953.99 547.208C954.156 546.456 954.039 545.756 953.613 544.956L952.995 543.795L952.855 544.493C952.512 546.215 950.797 545.997 948.445 543.933L946.862 542.545L946.646 543.868C946.527 544.596 946.282 545.945 946.102 546.866L945.775 548.541L946.438 549.836C947.925 552.74 949.145 553.07 953.28 551.683ZM971.85 551.971C972.364 551.569 973.089 550.643 973.462 549.913L974.142 548.586L973.592 545.667C972.952 542.263 972.917 542.199 972.214 543.199C971.51 544.2 968.74 545.802 967.969 545.654C967.635 545.59 967.265 545.146 967.147 544.666L966.933 543.795L966.329 544.94C965.924 545.707 965.797 546.466 965.943 547.239L966.16 548.394L965.256 548.984C963.468 550.152 964.462 551.278 968.044 552.141L968.132 552.162C969.862 552.579 970.466 552.725 970.959 552.554C971.224 552.462 971.456 552.28 971.813 552L971.85 551.971ZM1001.41 546.625L1001.58 542.048L1000.52 539.428C999.933 537.987 999.349 536.379 999.219 535.856C999.088 535.332 998.366 534.207 997.615 533.357C995.808 531.31 995.832 531.274 998.861 531.468L1001.47 531.635L1001.17 531.078C1001 530.771 999.899 529.581 998.728 528.434C996.204 525.962 996.111 525.662 998.089 526.361C998.908 526.65 1001.18 527.067 1003.14 527.286L1006.71 527.685L1011.47 526.906C1014.09 526.478 1016.55 526.011 1016.94 525.869L1017.64 525.612L1015.27 524.613C1007.46 521.318 1000.56 516.854 995.533 511.845L991.837 508.162L990.012 504.61L988.187 501.06L988.192 498.672C988.201 494.538 989.387 490.694 991.272 488.686L992.174 487.725H993.872C997.105 487.725 1002.33 490.304 1006.94 494.174C1008.29 495.313 1008.18 495.295 1004.73 493.849C1003.15 493.182 1000.5 492.217 998.855 491.705L995.859 490.774L995.021 491.155C992.382 492.354 991.213 498.591 993.015 501.861L993.97 503.596L995.197 503.894C995.872 504.057 1000.13 504.214 1004.66 504.242L1012.9 504.292L1016.23 503.686C1023.86 502.296 1029.23 499.188 1031.69 494.728L1032.37 493.489L1032.16 494.362C1030.25 502.279 1021.13 508.452 1007.85 510.821C1005.62 511.22 1003.68 511.715 1003.55 511.921C1002.53 513.578 1008.18 518.68 1013.85 521.216C1017.69 522.933 1017.9 522.82 1015 520.599C1013.46 519.417 1011.28 517.56 1010.17 516.471L1008.14 514.492L1008.59 514.252C1008.84 514.121 1009.83 513.899 1010.8 513.76C1022.6 512.063 1034.09 503.019 1035.6 494.239L1036 491.917L1035.6 489.594C1034.12 480.996 1026.01 472.164 1014.18 466.26C1010.09 464.22 1009.86 464.361 1013.34 466.78C1025.44 475.189 1029.36 487.452 1021.31 491.667L1019.91 492.401L1016.75 492.393C1012.63 492.382 1011.59 492.065 1004.31 488.596C1000.94 486.989 997.595 485.57 996.885 485.443C996.175 485.315 995.322 484.912 994.991 484.546L994.388 483.882H992.856C990.796 483.882 987.489 485.069 986.538 486.15C986.113 486.633 985.307 488.456 984.746 490.2L983.727 493.372L983.508 492.557C983.388 492.109 983.287 490.616 983.284 489.24L983.279 486.737L981.439 485.274C979.327 483.595 977.894 482.825 975.33 481.989L973.515 481.397L972.175 482.085C968.358 484.045 963.25 488.314 960.974 491.447L959.919 492.898L958.23 490.622C955.467 486.902 947.606 481.182 945.847 481.611C943.572 482.166 940.938 483.424 939 484.881L936.835 486.509L936.63 489.738C936.377 493.721 936.224 493.905 935.47 491.136C935.142 489.933 934.448 488.163 933.927 487.204L932.979 485.46L931.052 484.682C928.777 483.764 925.746 483.622 925.095 484.404C924.856 484.691 924.009 485.096 923.212 485.305C922.415 485.513 919.003 486.993 915.629 488.594C908.335 492.054 907.3 492.372 903.185 492.411L900.031 492.441L898.343 491.613C896.281 490.601 895.094 488.917 894.554 486.235L894.153 484.246L894.582 482.055C894.818 480.851 895.582 478.764 896.279 477.419L897.548 474.974L900.892 471.655C902.732 469.83 905.38 467.563 906.776 466.617C910.179 464.312 909.781 464.258 905.413 466.431C894.51 471.854 886.965 479.623 884.594 487.868L884 489.932L884.152 492.825L884.305 495.717L885.634 498.398C888.884 504.952 897.003 510.789 906.05 513.077C907.898 513.544 909.862 513.926 910.416 513.926C911.04 513.926 911.423 514.11 911.423 514.41C911.423 515.046 907.528 518.66 904.597 520.744C901.5 522.947 901.908 523.059 906.001 521.127C911.874 518.354 916.33 514.624 916.33 512.482V511.512L915.191 511.329C900.533 508.975 892.447 504.642 888.677 497.122C887.216 494.208 887.295 493.416 888.822 495.676C891.74 499.994 897.002 502.712 904.587 503.819C908.12 504.335 919.791 504.461 923.437 504.023L925.813 503.737L926.852 501.932C928.698 498.725 927.515 492.203 924.908 491.215L924.059 490.893L921.509 491.544C920.106 491.902 917.469 492.835 915.648 493.618C911.743 495.297 911.58 495.278 913.811 493.403C917.296 490.474 922.173 488.036 925.532 487.541L927.198 487.296L928.56 488.654L929.923 490.011L930.682 492.449C931.1 493.79 931.534 496.177 931.648 497.754L931.855 500.621L930.383 503.595C926.347 511.753 917.519 519.093 905.69 524.127L902.177 525.622L904.765 526.222C906.189 526.551 908.783 526.991 910.529 527.199L913.703 527.577L916.873 527.219C918.617 527.022 920.785 526.638 921.691 526.367L923.339 525.872L921.202 528.196C920.027 529.474 918.931 530.771 918.766 531.078L918.466 531.635L921.143 531.464L923.82 531.293L922.572 532.828C921.244 534.462 920.186 536.323 920.186 537.026C920.186 537.26 919.805 538.408 919.339 539.575C918.873 540.743 918.382 542.445 918.248 543.357C917.992 545.091 918.681 552.005 919.11 552.005C919.245 552.005 919.883 550.658 920.525 549.011C922.591 543.718 928.527 534.245 931.548 531.42C932.703 530.34 932.686 529.999 931.418 528.789C928.65 526.145 928.775 523.123 931.795 519.695C933.325 517.959 933.612 518.171 932.616 520.302C931.056 523.642 931.136 523.82 935.784 527.282C940.222 530.588 941.633 531.981 943.577 534.976C944.436 536.299 945.186 537.332 945.243 537.27C945.3 537.208 945.688 535.366 946.106 533.177C946.524 530.988 947.249 528.001 947.717 526.54C948.185 525.078 948.571 523.793 948.573 523.684C948.576 523.575 947.482 524.028 946.144 524.69L943.71 525.894L941.236 526.071L938.763 526.247V525.851C938.763 525.633 939.073 525.455 939.451 525.455C940.59 525.455 943.991 524.05 945.002 523.163L945.949 522.332L943.74 522.322C940.268 522.304 938.864 521.282 937.047 517.444C936.462 516.208 935.881 514.519 935.756 513.691L935.53 512.184L934.079 511.774C933.282 511.548 932.5 511.254 932.343 511.12C931.853 510.702 934.999 509.662 936.763 509.657L938.444 509.654L940.619 510.74C941.815 511.339 943.977 512.791 945.423 513.969C950.538 518.136 952.223 518.859 953.288 517.344C954.944 514.988 954.105 512.584 950.176 508.424C948.678 506.839 947.603 505.542 947.786 505.542C948.62 505.542 952.466 508.442 954.463 510.577L956.668 512.934L956.429 515.037L956.191 517.14L956.816 517.018C957.16 516.951 957.772 516.454 958.176 515.914L958.911 514.933L958.871 512.945C958.849 511.845 958.498 510.098 958.085 509.036L957.34 507.114L958.628 508.618L959.917 510.122L961.239 508.618L962.561 507.114L961.672 509.702L960.783 512.29L961.012 513.814C961.263 515.483 962.588 517.334 963.243 516.931C963.521 516.76 963.578 516.063 963.424 514.752L963.196 512.824L966.146 509.93C968.631 507.492 971.349 505.542 972.262 505.542C972.387 505.542 971.236 506.861 969.705 508.474C965.807 512.577 965.135 514.222 966.261 516.907L966.769 518.119H967.799C968.934 518.119 971.141 516.722 975.032 513.542C979.354 510.009 983.083 508.913 986.27 510.241C987.882 510.912 987.802 511.252 985.915 511.755L984.346 512.173L984.15 513.137C983.324 517.212 981.629 520.435 979.694 521.611L978.547 522.308L976.356 522.309C975.151 522.31 974.166 522.456 974.166 522.633C974.166 523.115 978.317 525.088 979.844 525.332C982.215 525.71 981.349 526.26 978.683 526.069L976.19 525.892L973.775 524.657C972.448 523.978 971.365 523.526 971.369 523.653C971.373 523.779 971.768 525.214 972.247 526.842C972.933 529.17 974.516 536.382 974.516 537.175C974.516 537.822 975.208 537.014 976.081 535.349C977.386 532.859 979.683 530.535 984.155 527.179L987.661 524.548L987.77 523.05C987.842 522.063 987.636 521.062 987.166 520.116C986.262 518.294 986.417 518.155 987.807 519.54C990.922 522.646 991.155 526.352 988.395 528.922L988.291 529.018C987.925 529.357 987.684 529.58 987.622 529.845C987.503 530.351 988.038 531.011 989.597 532.934L989.828 533.219C994.021 538.393 998.891 546.785 1000.17 551.037L1000.58 552.397L1000.91 551.8C1001.1 551.472 1001.32 549.143 1001.41 546.625ZM912.825 524.458C917.665 522.842 923.041 520.265 925.262 518.496L925.956 517.943L925.044 519.166C922.875 522.075 917.723 524.631 913.43 524.927L910.897 525.101L912.825 524.458ZM1003.71 524.567C1001 523.84 998.036 522.238 995.958 520.376C993.756 518.403 993.815 517.967 996.075 519.517C998.087 520.897 1002.18 522.801 1005.89 524.083L1008.69 525.052L1007.11 525.056C1006.25 525.058 1004.71 524.838 1003.71 524.567ZM943.822 504.854C943.642 504.674 942.392 504.114 941.044 503.608C939.697 503.103 938.491 502.523 938.366 502.321C938.003 501.736 939.026 499.229 940.378 497.387C941.819 495.426 942.073 495.416 941.416 497.346C941.157 498.106 940.837 499.382 940.705 500.179L940.466 501.629L941.753 502.624C942.461 503.172 943.379 503.882 943.793 504.201C944.208 504.521 944.458 504.872 944.348 504.982C944.239 505.091 944.002 505.034 943.822 504.854ZM975.553 504.686C975.828 504.355 976.733 503.619 977.563 503.05L979.073 502.014V500.689C979.073 499.961 978.838 498.593 978.551 497.649C977.871 495.416 977.874 495.406 978.907 496.633C980.153 498.114 981.527 500.826 981.527 501.806V502.636L980.037 503.08C979.218 503.324 977.761 503.921 976.8 504.406L975.052 505.287L975.553 504.686ZM961.984 544.352C962.442 544.179 963.565 543.022 964.479 541.782C966.878 538.525 968.498 537.972 970.319 539.786C971.239 540.703 971.292 540.679 971.568 539.214C971.905 537.421 971.005 535.693 969.381 535.016C967.787 534.353 966.957 534.557 963.904 536.365L961.485 537.798H959.969H958.453L956.047 536.349C953.102 534.576 951.844 534.281 950.4 535.025C948.534 535.987 947.713 538.033 948.437 539.915L948.646 540.459L949.784 539.594C951.821 538.047 953.577 538.93 956.278 542.861C957.444 544.558 959.81 545.176 961.984 544.352ZM963.91 534.141L966.535 532.697L968.744 532.903L970.952 533.108L970.09 529.892C969.617 528.124 968.749 525.655 968.162 524.406L967.095 522.135L964.233 520.743C960.48 518.917 959.408 518.927 955.638 520.819L952.709 522.29L951.667 524.484C950.799 526.309 948.932 532.279 948.929 533.239C948.929 533.39 949.233 533.351 949.606 533.152C949.979 532.953 950.992 532.79 951.856 532.79H953.428L955.998 534.171C957.683 535.076 959.035 535.557 959.927 535.568L961.286 535.585L963.91 534.141ZM957.483 531.356C957.116 530.951 956.224 530.319 955.501 529.951C954.208 529.294 953.707 528.249 954.685 528.249C955.404 528.249 957.278 529.908 957.888 531.085C958.508 532.28 958.392 532.358 957.483 531.356ZM962.018 531.173C962.65 529.928 964.509 528.249 965.255 528.249C966.174 528.249 965.765 529.273 964.614 529.852C963.987 530.167 963.022 530.839 962.469 531.346L961.462 532.266L962.018 531.173ZM946.811 517.229C945.347 515.742 941.686 513.576 940.635 513.576C939.537 513.576 940.864 516.817 942.481 518.085L943.415 518.817H945.894H948.373L946.811 517.229ZM977.418 518.117C978.893 516.96 980.326 513.572 979.336 513.58C977.873 513.592 971.713 517.611 971.712 518.555C971.712 518.699 972.795 518.817 974.119 518.817H976.525L977.418 518.117ZM962.628 482.485C965.002 476.572 966.454 470.464 966.454 466.39C966.454 464.555 966.046 464.659 965.324 466.677C964.998 467.59 964.29 469.013 963.752 469.84L962.774 471.345L962.678 470.714C962.292 468.182 961.295 464.864 960.39 463.096L959.317 461L958.911 464.144C958.688 465.873 958.385 467.659 958.238 468.112L957.971 468.936L956.517 467.537C955.206 466.276 952.083 464.377 952.083 464.841C952.083 464.944 952.543 465.851 953.106 466.857C954.43 469.225 955.102 471.563 955.939 476.721C956.772 481.854 957.364 483.853 958.771 486.282L959.857 488.158L960.576 486.981C960.971 486.333 961.895 484.31 962.628 482.485ZM967.166 481.584C969.733 478.983 971.339 478.029 973.684 477.708C974.632 477.579 975.995 477.025 976.962 476.376C977.873 475.766 979.915 474.892 981.502 474.436L984.386 473.605L983.745 473.353C981.441 472.448 976.879 473.126 973.136 474.929L972.766 475.108C971.597 475.672 971.203 475.862 971.073 475.75C971.007 475.693 971.008 475.557 971.01 475.353C971.011 475.313 971.011 475.271 971.011 475.226C971.011 474.257 971.875 473.253 974.251 471.46L976.444 469.805L974.692 470.035C972.652 470.303 969.711 471.644 968.668 472.783C967.96 473.555 964.251 483.882 964.682 483.882C964.8 483.882 965.918 482.848 967.166 481.584ZM936.135 481.574C939.234 479.413 940.341 478.518 940.341 478.171C940.341 477.521 938.007 476.547 936.45 476.546L935.013 476.546L933.471 477.668C932.523 478.357 930.847 479.073 929.124 479.525C927.582 479.929 925.847 480.515 925.268 480.827L924.217 481.394L927.897 481.375L931.578 481.356L932.805 481.888C934.106 482.453 934.994 482.369 936.135 481.574ZM954.678 481.349C953.073 471.865 950.831 469.209 944.429 469.209H942.861L943.529 469.951C944.536 471.07 948.245 473.85 948.453 473.643C948.553 473.543 948.455 473.094 948.236 472.646L947.837 471.83L948.598 472.703C949.017 473.183 950.149 475.148 951.115 477.07C953.73 482.272 955.116 483.937 954.678 481.349ZM986.906 481.961C987.75 481.609 989.408 481.431 991.944 481.421L995.723 481.406L994.496 480.771C993.821 480.422 992.086 479.859 990.64 479.52C988.842 479.098 987.522 478.531 986.464 477.724L984.917 476.546L983.485 476.546C982.004 476.547 979.734 477.471 979.517 478.162C979.45 478.378 979.913 478.886 980.548 479.289C981.183 479.693 982.468 480.577 983.405 481.254L983.577 481.378C984.546 482.08 984.972 482.388 985.416 482.416C985.763 482.438 986.121 482.288 986.76 482.022L986.906 481.961ZM949.279 478.281C949.279 478.083 949.065 477.409 948.802 476.783L948.325 475.646L945.735 474.441L943.145 473.236L940.166 473.118C938.527 473.052 936.792 473.151 936.31 473.337L935.433 473.676L936.485 473.912C938.821 474.436 941.821 475.613 943.145 476.524C943.969 477.092 945.263 477.585 946.285 477.72C947.241 477.846 948.18 478.106 948.371 478.296C948.822 478.746 949.279 478.738 949.279 478.281ZM972.764 469.734C972.764 469.637 972.685 469.559 972.589 469.559C972.492 469.559 972.413 469.637 972.413 469.734C972.413 469.83 972.492 469.908 972.589 469.908C972.685 469.908 972.764 469.83 972.764 469.734Z" fill="#1C1A1D"/>
</svg>
