<svg width="1920" height="1080" viewBox="0 0 1920 1080" fill="none" xmlns="http://www.w3.org/2000/svg">
<path fill-rule="evenodd" clip-rule="evenodd" d="M0 0H1920V1080H0V0ZM824.375 596V613H822.219V610.078C821.302 611.193 820.271 612.031 819.125 612.594C817.99 613.156 816.745 613.438 815.391 613.438C812.984 613.438 810.927 612.568 809.219 610.828C807.521 609.078 806.672 606.953 806.672 604.453C806.672 602.005 807.531 599.911 809.25 598.172C810.969 596.432 813.036 595.562 815.453 595.562C816.849 595.562 818.109 595.859 819.234 596.453C820.37 597.047 821.365 597.938 822.219 599.125V596H824.375ZM815.625 597.672C814.406 597.672 813.281 597.974 812.25 598.578C811.219 599.172 810.396 600.01 809.781 601.094C809.177 602.177 808.875 603.323 808.875 604.531C808.875 605.729 809.182 606.875 809.797 607.969C810.411 609.062 811.234 609.917 812.266 610.531C813.307 611.135 814.422 611.438 815.609 611.438C816.807 611.438 817.943 611.135 819.016 610.531C820.089 609.927 820.911 609.109 821.484 608.078C822.068 607.047 822.359 605.885 822.359 604.594C822.359 602.625 821.708 600.979 820.406 599.656C819.115 598.333 817.521 597.672 815.625 597.672ZM829.344 596H831.516V599.125C832.38 597.938 833.375 597.047 834.5 596.453C835.625 595.859 836.88 595.562 838.266 595.562C840.682 595.562 842.75 596.432 844.469 598.172C846.188 599.911 847.047 602.005 847.047 604.453C847.047 606.953 846.193 609.078 844.484 610.828C842.786 612.568 840.734 613.438 838.328 613.438C836.974 613.438 835.729 613.156 834.594 612.594C833.458 612.031 832.432 611.193 831.516 610.078V619.219H829.344V596ZM838.094 597.672C836.198 597.672 834.599 598.333 833.297 599.656C832.005 600.979 831.359 602.625 831.359 604.594C831.359 605.885 831.646 607.047 832.219 608.078C832.802 609.109 833.63 609.927 834.703 610.531C835.786 611.135 836.927 611.438 838.125 611.438C839.302 611.438 840.406 611.135 841.438 610.531C842.479 609.917 843.307 609.062 843.922 607.969C844.536 606.875 844.844 605.729 844.844 604.531C844.844 603.323 844.536 602.177 843.922 601.094C843.318 600.01 842.5 599.172 841.469 598.578C840.438 597.974 839.312 597.672 838.094 597.672ZM851.188 596H853.359V599.125C854.224 597.938 855.219 597.047 856.344 596.453C857.469 595.859 858.724 595.562 860.109 595.562C862.526 595.562 864.594 596.432 866.312 598.172C868.031 599.911 868.891 602.005 868.891 604.453C868.891 606.953 868.036 609.078 866.328 610.828C864.63 612.568 862.578 613.438 860.172 613.438C858.818 613.438 857.573 613.156 856.438 612.594C855.302 612.031 854.276 611.193 853.359 610.078V619.219H851.188V596ZM859.938 597.672C858.042 597.672 856.443 598.333 855.141 599.656C853.849 600.979 853.203 602.625 853.203 604.594C853.203 605.885 853.49 607.047 854.062 608.078C854.646 609.109 855.474 609.927 856.547 610.531C857.63 611.135 858.771 611.438 859.969 611.438C861.146 611.438 862.25 611.135 863.281 610.531C864.323 609.917 865.151 609.062 865.766 607.969C866.38 606.875 866.688 605.729 866.688 604.531C866.688 603.323 866.38 602.177 865.766 601.094C865.161 600.01 864.344 599.172 863.312 598.578C862.281 597.974 861.156 597.672 859.938 597.672ZM882.641 589C883.141 589 883.568 589.177 883.922 589.531C884.276 589.885 884.453 590.312 884.453 590.812C884.453 591.302 884.276 591.724 883.922 592.078C883.568 592.432 883.141 592.609 882.641 592.609C882.151 592.609 881.729 592.432 881.375 592.078C881.021 591.724 880.844 591.302 880.844 590.812C880.844 590.312 881.021 589.885 881.375 589.531C881.729 589.177 882.151 589 882.641 589ZM881.547 596H883.75V613H881.547V596ZM888.281 596H890.469V599.047C891.344 597.88 892.312 597.01 893.375 596.438C894.438 595.854 895.594 595.562 896.844 595.562C898.115 595.562 899.24 595.885 900.219 596.531C901.208 597.177 901.938 598.047 902.406 599.141C902.875 600.234 903.109 601.938 903.109 604.25V613H900.938V604.891C900.938 602.932 900.854 601.625 900.688 600.969C900.427 599.844 899.938 599 899.219 598.438C898.5 597.865 897.562 597.578 896.406 597.578C895.083 597.578 893.896 598.016 892.844 598.891C891.802 599.766 891.115 600.849 890.781 602.141C890.573 602.984 890.469 604.526 890.469 606.766V613H888.281V596ZM916.719 596H918.891V599.125C919.755 597.938 920.75 597.047 921.875 596.453C923 595.859 924.255 595.562 925.641 595.562C928.057 595.562 930.125 596.432 931.844 598.172C933.562 599.911 934.422 602.005 934.422 604.453C934.422 606.953 933.568 609.078 931.859 610.828C930.161 612.568 928.109 613.438 925.703 613.438C924.349 613.438 923.104 613.156 921.969 612.594C920.833 612.031 919.807 611.193 918.891 610.078V619.219H916.719V596ZM925.469 597.672C923.573 597.672 921.974 598.333 920.672 599.656C919.38 600.979 918.734 602.625 918.734 604.594C918.734 605.885 919.021 607.047 919.594 608.078C920.177 609.109 921.005 609.927 922.078 610.531C923.161 611.135 924.302 611.438 925.5 611.438C926.677 611.438 927.781 611.135 928.812 610.531C929.854 609.917 930.682 609.062 931.297 607.969C931.911 606.875 932.219 605.729 932.219 604.531C932.219 603.323 931.911 602.177 931.297 601.094C930.693 600.01 929.875 599.172 928.844 598.578C927.812 597.974 926.688 597.672 925.469 597.672ZM937.703 596H939.938V598.484C940.604 597.505 941.307 596.776 942.047 596.297C942.786 595.807 943.557 595.562 944.359 595.562C944.964 595.562 945.609 595.755 946.297 596.141L945.156 597.984C944.698 597.786 944.312 597.688 944 597.688C943.271 597.688 942.568 597.99 941.891 598.594C941.214 599.188 940.698 600.115 940.344 601.375C940.073 602.344 939.938 604.302 939.938 607.25V613H937.703V596ZM956.203 595.562C958.818 595.562 960.984 596.51 962.703 598.406C964.266 600.135 965.047 602.182 965.047 604.547C965.047 606.922 964.219 609 962.562 610.781C960.917 612.552 958.797 613.438 956.203 613.438C953.599 613.438 951.469 612.552 949.812 610.781C948.167 609 947.344 606.922 947.344 604.547C947.344 602.193 948.125 600.151 949.688 598.422C951.406 596.516 953.578 595.562 956.203 595.562ZM956.203 597.703C954.391 597.703 952.833 598.375 951.531 599.719C950.229 601.062 949.578 602.688 949.578 604.594C949.578 605.823 949.875 606.969 950.469 608.031C951.062 609.094 951.865 609.917 952.875 610.5C953.885 611.073 954.995 611.359 956.203 611.359C957.411 611.359 958.521 611.073 959.531 610.5C960.542 609.917 961.344 609.094 961.938 608.031C962.531 606.969 962.828 605.823 962.828 604.594C962.828 602.688 962.172 601.062 960.859 599.719C959.557 598.375 958.005 597.703 956.203 597.703ZM986.094 589.438V613H983.938V610.078C983.021 611.193 981.99 612.031 980.844 612.594C979.708 613.156 978.464 613.438 977.109 613.438C974.703 613.438 972.646 612.568 970.938 610.828C969.24 609.078 968.391 606.953 968.391 604.453C968.391 602.005 969.25 599.911 970.969 598.172C972.688 596.432 974.755 595.562 977.172 595.562C978.568 595.562 979.828 595.859 980.953 596.453C982.089 597.047 983.083 597.938 983.938 599.125V589.438H986.094ZM977.344 597.672C976.125 597.672 975 597.974 973.969 598.578C972.938 599.172 972.115 600.01 971.5 601.094C970.896 602.177 970.594 603.323 970.594 604.531C970.594 605.729 970.901 606.875 971.516 607.969C972.13 609.062 972.953 609.917 973.984 610.531C975.026 611.135 976.141 611.438 977.328 611.438C978.526 611.438 979.661 611.135 980.734 610.531C981.807 609.927 982.63 609.109 983.203 608.078C983.786 607.047 984.078 605.885 984.078 604.594C984.078 602.625 983.427 600.979 982.125 599.656C980.833 598.333 979.24 597.672 977.344 597.672ZM990.781 596H992.984V603.938C992.984 605.875 993.089 607.208 993.297 607.938C993.609 608.979 994.203 609.802 995.078 610.406C995.964 611.01 997.016 611.312 998.234 611.312C999.453 611.312 1000.48 611.021 1001.33 610.438C1002.18 609.844 1002.77 609.068 1003.09 608.109C1003.31 607.453 1003.42 606.062 1003.42 603.938V596H1005.66V604.344C1005.66 606.688 1005.38 608.453 1004.83 609.641C1004.29 610.828 1003.46 611.76 1002.36 612.438C1001.27 613.104 999.891 613.438 998.234 613.438C996.578 613.438 995.193 613.104 994.078 612.438C992.974 611.76 992.146 610.823 991.594 609.625C991.052 608.417 990.781 606.604 990.781 604.188V596ZM1027.03 599.531L1025.3 600.609C1023.8 598.62 1021.75 597.625 1019.16 597.625C1017.08 597.625 1015.36 598.292 1013.98 599.625C1012.62 600.958 1011.94 602.578 1011.94 604.484C1011.94 605.724 1012.25 606.891 1012.88 607.984C1013.51 609.078 1014.38 609.927 1015.47 610.531C1016.57 611.135 1017.81 611.438 1019.17 611.438C1021.67 611.438 1023.71 610.443 1025.3 608.453L1027.03 609.594C1026.22 610.812 1025.12 611.76 1023.75 612.438C1022.39 613.104 1020.83 613.438 1019.08 613.438C1016.39 613.438 1014.16 612.583 1012.39 610.875C1010.62 609.167 1009.73 607.089 1009.73 604.641C1009.73 602.995 1010.15 601.469 1010.97 600.062C1011.8 598.646 1012.94 597.542 1014.39 596.75C1015.84 595.958 1017.46 595.562 1019.25 595.562C1020.38 595.562 1021.46 595.734 1022.5 596.078C1023.55 596.422 1024.44 596.87 1025.17 597.422C1025.9 597.974 1026.52 598.677 1027.03 599.531ZM1033.16 589.688H1035.36V596H1038.83V597.875H1035.36V613H1033.16V597.875H1030.17V596H1033.16V589.688ZM1042.86 589C1043.36 589 1043.79 589.177 1044.14 589.531C1044.49 589.885 1044.67 590.312 1044.67 590.812C1044.67 591.302 1044.49 591.724 1044.14 592.078C1043.79 592.432 1043.36 592.609 1042.86 592.609C1042.37 592.609 1041.95 592.432 1041.59 592.078C1041.24 591.724 1041.06 591.302 1041.06 590.812C1041.06 590.312 1041.24 589.885 1041.59 589.531C1041.95 589.177 1042.37 589 1042.86 589ZM1041.77 596H1043.97V613H1041.77V596ZM1056.55 595.562C1059.16 595.562 1061.33 596.51 1063.05 598.406C1064.61 600.135 1065.39 602.182 1065.39 604.547C1065.39 606.922 1064.56 609 1062.91 610.781C1061.26 612.552 1059.14 613.438 1056.55 613.438C1053.94 613.438 1051.81 612.552 1050.16 610.781C1048.51 609 1047.69 606.922 1047.69 604.547C1047.69 602.193 1048.47 600.151 1050.03 598.422C1051.75 596.516 1053.92 595.562 1056.55 595.562ZM1056.55 597.703C1054.73 597.703 1053.18 598.375 1051.88 599.719C1050.57 601.062 1049.92 602.688 1049.92 604.594C1049.92 605.823 1050.22 606.969 1050.81 608.031C1051.41 609.094 1052.21 609.917 1053.22 610.5C1054.23 611.073 1055.34 611.359 1056.55 611.359C1057.76 611.359 1058.86 611.073 1059.88 610.5C1060.89 609.917 1061.69 609.094 1062.28 608.031C1062.88 606.969 1063.17 605.823 1063.17 604.594C1063.17 602.688 1062.52 601.062 1061.2 599.719C1059.9 598.375 1058.35 597.703 1056.55 597.703ZM1069.47 596H1071.66V599.047C1072.53 597.88 1073.5 597.01 1074.56 596.438C1075.62 595.854 1076.78 595.562 1078.03 595.562C1079.3 595.562 1080.43 595.885 1081.41 596.531C1082.4 597.177 1083.12 598.047 1083.59 599.141C1084.06 600.234 1084.3 601.938 1084.3 604.25V613H1082.12V604.891C1082.12 602.932 1082.04 601.625 1081.88 600.969C1081.61 599.844 1081.12 599 1080.41 598.438C1079.69 597.865 1078.75 597.578 1077.59 597.578C1076.27 597.578 1075.08 598.016 1074.03 598.891C1072.99 599.766 1072.3 600.849 1071.97 602.141C1071.76 602.984 1071.66 604.526 1071.66 606.766V613H1069.47V596ZM1091.41 609.562C1091.94 609.562 1092.39 609.75 1092.77 610.125C1093.14 610.5 1093.33 610.958 1093.33 611.5C1093.33 612.031 1093.14 612.49 1092.77 612.875C1092.39 613.25 1091.94 613.438 1091.41 613.438C1090.88 613.438 1090.42 613.25 1090.05 612.875C1089.67 612.49 1089.48 612.031 1089.48 611.5C1089.48 610.958 1089.67 610.5 1090.05 610.125C1090.42 609.75 1090.88 609.562 1091.41 609.562ZM1100.28 609.562C1100.81 609.562 1101.27 609.75 1101.64 610.125C1102.02 610.5 1102.2 610.958 1102.2 611.5C1102.2 612.031 1102.02 612.49 1101.64 612.875C1101.27 613.25 1100.81 613.438 1100.28 613.438C1099.75 613.438 1099.3 613.25 1098.92 612.875C1098.55 612.49 1098.36 612.031 1098.36 611.5C1098.36 610.958 1098.55 610.5 1098.92 610.125C1099.3 609.75 1099.75 609.562 1100.28 609.562ZM1109.16 609.562C1109.69 609.562 1110.14 609.75 1110.52 610.125C1110.89 610.5 1111.08 610.958 1111.08 611.5C1111.08 612.031 1110.89 612.49 1110.52 612.875C1110.14 613.25 1109.69 613.438 1109.16 613.438C1108.62 613.438 1108.17 613.25 1107.8 612.875C1107.42 612.49 1107.23 612.031 1107.23 611.5C1107.23 610.958 1107.42 610.5 1107.8 610.125C1108.17 609.75 1108.62 609.562 1109.16 609.562ZM960.778 579.865C961.158 579.24 961.827 577.707 962.266 576.458C963.394 573.245 963.784 573.029 963.526 575.76C963.408 577.009 963.215 578.424 963.097 578.904C962.739 580.357 965.737 575.214 966.507 573.055C966.901 571.948 967.423 569.786 967.667 568.249L968.11 565.454L968.549 566.502C968.79 567.079 969.07 568.611 969.17 569.908C969.402 572.894 969.696 572.883 970.428 569.858C971.102 567.074 971.182 563.471 970.619 561.242C970.132 559.315 969.866 559.306 968.665 561.175C968.14 561.991 967.673 562.716 967.627 562.787C967.581 562.856 967.101 562.566 966.561 562.142L965.578 561.371L965.282 562.539C965.12 563.182 964.868 564.021 964.722 564.404L964.458 565.1L963.864 563.955C963.492 563.239 962.687 562.528 961.713 562.056L960.156 561.303L958.492 561.99L956.827 562.678L956.07 564.023L955.313 565.367L955.119 564.712C955.012 564.352 954.82 563.467 954.692 562.747C954.426 561.252 954.202 561.153 953.31 562.135C952.492 563.036 952.14 563.017 951.747 562.048C951.571 561.616 951.042 560.795 950.57 560.224L949.712 559.185L949.277 561.272C948.729 563.897 949.001 568.096 949.853 570.17L950.499 571.742L950.742 569.122C950.876 567.681 951.136 566.109 951.32 565.629L951.654 564.755L951.869 566.153C952.462 569.989 952.838 571.44 953.713 573.256L954.666 575.236L954.905 572.343C955.176 569.058 955.447 568.439 955.756 570.397C956.387 574.404 958.874 581 959.753 581C959.937 581 960.399 580.489 960.778 579.865ZM981.87 563.433C983.641 559.631 985.709 554.043 986.191 551.753C986.671 549.472 986.786 549.471 988.485 551.742C990.327 554.203 990.919 555.438 991.674 558.403L992.312 560.908L992.903 559.513C994.651 555.384 994.974 551.745 993.857 548.771C991.596 542.747 985.108 533.139 983.302 533.139C980.868 533.139 975.187 541.633 975.796 544.362C976.211 546.223 976.326 546.201 977.481 544.046C978.732 541.712 982.389 536.982 982.942 536.982C983.484 536.982 985.209 539.575 986.96 543.021L988.596 546.24L987.399 544.87C985.89 543.144 985.215 543.332 984.908 545.561C984.783 546.471 984.499 547.86 984.276 548.649L983.871 550.082L983.575 548.685C983.161 546.727 982.226 544.318 981.879 544.318C981.214 544.318 979.727 546.546 979.918 547.258C981.156 551.872 980.969 562.324 979.561 567.2L979.359 567.899L979.946 567.101C980.268 566.661 981.134 565.012 981.87 563.433ZM939.818 564.843C938.896 560.671 939.006 550.815 940.016 547.24L940.227 546.494L939.202 545.35C938.62 544.701 938.005 544.313 937.778 544.453C937.301 544.747 936.312 547.922 936.305 549.185L936.299 550.083L935.964 549.559C935.779 549.271 935.459 548.17 935.254 547.114C934.602 543.763 934.554 543.62 934.061 543.62C933.796 543.62 933.089 544.176 932.491 544.855C931.892 545.534 931.403 546.001 931.403 545.891C931.403 545.294 935.607 538.009 936.528 537.01C936.945 536.558 940.758 541.161 942.509 544.231C944.465 547.661 944.721 544.035 942.813 539.919L941.604 537.312L939.511 535.226C938.36 534.078 937.111 533.14 936.736 533.14C934.585 533.14 927.559 543.749 925.616 549.933L925.005 551.88L925.578 554.699C925.893 556.25 926.494 558.282 926.913 559.216L927.675 560.913L928.133 558.699C929.065 554.187 933.506 547.851 933.506 551.034C933.506 553.046 939.721 568.179 940.093 567.07C940.165 566.854 940.041 565.852 939.818 564.843ZM968.014 557.216C970.329 555.783 970.44 555.521 969.044 554.799L968.032 554.275H960.145H952.258L950.944 554.739C949.25 555.336 949.286 555.555 951.294 556.838C953.975 558.551 954.373 558.626 960.353 558.544L965.994 558.467L968.014 557.216ZM953.28 551.683C954.227 551.365 955.174 550.834 955.383 550.503L955.764 549.9L954.757 549.1L953.75 548.299L953.99 547.208C954.156 546.456 954.039 545.756 953.613 544.956L952.995 543.795L952.855 544.493C952.512 546.215 950.797 545.997 948.445 543.933L946.862 542.545L946.646 543.868C946.527 544.596 946.282 545.945 946.102 546.866L945.775 548.541L946.438 549.836C947.925 552.74 949.145 553.07 953.28 551.683ZM971.85 551.971C972.364 551.569 973.089 550.643 973.462 549.913L974.142 548.586L973.592 545.667C972.952 542.263 972.917 542.199 972.214 543.199C971.51 544.2 968.74 545.802 967.969 545.654C967.635 545.59 967.265 545.146 967.147 544.666L966.933 543.795L966.329 544.94C965.924 545.707 965.797 546.466 965.943 547.239L966.16 548.394L965.256 548.984C963.468 550.152 964.462 551.278 968.044 552.141L968.132 552.162C969.862 552.579 970.466 552.725 970.959 552.554C971.224 552.462 971.456 552.28 971.813 552L971.85 551.971ZM1001.41 546.625L1001.58 542.048L1000.52 539.428C999.933 537.987 999.349 536.379 999.219 535.856C999.088 535.332 998.366 534.207 997.615 533.357C995.808 531.31 995.832 531.274 998.861 531.468L1001.47 531.635L1001.17 531.078C1001 530.771 999.899 529.581 998.728 528.434C996.204 525.962 996.111 525.662 998.089 526.361C998.908 526.65 1001.18 527.067 1003.14 527.286L1006.71 527.685L1011.47 526.906C1014.09 526.478 1016.55 526.011 1016.94 525.869L1017.64 525.612L1015.27 524.613C1007.46 521.318 1000.56 516.854 995.533 511.845L991.837 508.162L990.012 504.61L988.187 501.06L988.192 498.672C988.201 494.538 989.387 490.694 991.272 488.686L992.174 487.725H993.872C997.105 487.725 1002.33 490.304 1006.94 494.174C1008.29 495.313 1008.18 495.295 1004.73 493.849C1003.15 493.182 1000.5 492.217 998.855 491.705L995.859 490.774L995.021 491.155C992.382 492.354 991.213 498.591 993.015 501.861L993.97 503.596L995.197 503.894C995.872 504.057 1000.13 504.214 1004.66 504.242L1012.9 504.292L1016.23 503.686C1023.86 502.296 1029.23 499.188 1031.69 494.728L1032.37 493.489L1032.16 494.362C1030.25 502.279 1021.13 508.452 1007.85 510.821C1005.62 511.22 1003.68 511.715 1003.55 511.921C1002.53 513.578 1008.18 518.68 1013.85 521.216C1017.69 522.933 1017.9 522.82 1015 520.599C1013.46 519.417 1011.28 517.56 1010.17 516.471L1008.14 514.492L1008.59 514.252C1008.84 514.121 1009.83 513.899 1010.8 513.76C1022.6 512.063 1034.09 503.019 1035.6 494.239L1036 491.917L1035.6 489.594C1034.12 480.996 1026.01 472.164 1014.18 466.26C1010.09 464.22 1009.86 464.361 1013.34 466.78C1025.44 475.189 1029.36 487.452 1021.31 491.667L1019.91 492.401L1016.75 492.393C1012.63 492.382 1011.59 492.065 1004.31 488.596C1000.94 486.989 997.595 485.57 996.885 485.443C996.175 485.315 995.322 484.912 994.991 484.546L994.388 483.882H992.856C990.796 483.882 987.489 485.069 986.538 486.15C986.113 486.633 985.307 488.456 984.746 490.2L983.727 493.372L983.508 492.557C983.388 492.109 983.287 490.616 983.284 489.24L983.279 486.737L981.439 485.274C979.327 483.595 977.894 482.825 975.33 481.989L973.515 481.397L972.175 482.085C968.358 484.045 963.25 488.314 960.974 491.447L959.919 492.898L958.23 490.622C955.467 486.902 947.606 481.182 945.847 481.611C943.572 482.166 940.938 483.424 939 484.881L936.835 486.509L936.63 489.738C936.377 493.721 936.224 493.905 935.47 491.136C935.142 489.933 934.448 488.163 933.927 487.204L932.979 485.46L931.052 484.682C928.777 483.764 925.746 483.622 925.095 484.404C924.856 484.691 924.009 485.096 923.212 485.305C922.415 485.513 919.003 486.993 915.629 488.594C908.335 492.054 907.3 492.372 903.185 492.411L900.031 492.441L898.343 491.613C896.281 490.601 895.094 488.917 894.554 486.235L894.153 484.246L894.582 482.055C894.818 480.851 895.582 478.764 896.279 477.419L897.548 474.974L900.892 471.655C902.732 469.83 905.38 467.563 906.776 466.617C910.179 464.312 909.781 464.258 905.413 466.431C894.51 471.854 886.965 479.623 884.594 487.868L884 489.932L884.152 492.825L884.305 495.717L885.634 498.398C888.884 504.952 897.003 510.789 906.05 513.077C907.898 513.544 909.862 513.926 910.416 513.926C911.04 513.926 911.423 514.11 911.423 514.41C911.423 515.046 907.528 518.66 904.597 520.744C901.5 522.947 901.908 523.059 906.001 521.127C911.874 518.354 916.33 514.624 916.33 512.482V511.512L915.191 511.329C900.533 508.975 892.447 504.642 888.677 497.122C887.216 494.208 887.295 493.416 888.822 495.676C891.74 499.994 897.002 502.712 904.587 503.819C908.12 504.335 919.791 504.461 923.437 504.023L925.813 503.737L926.852 501.932C928.698 498.725 927.515 492.203 924.908 491.215L924.059 490.893L921.509 491.544C920.106 491.902 917.469 492.835 915.648 493.618C911.743 495.297 911.58 495.278 913.811 493.403C917.296 490.474 922.173 488.036 925.532 487.541L927.198 487.296L928.56 488.654L929.923 490.011L930.682 492.449C931.1 493.79 931.534 496.177 931.648 497.754L931.855 500.621L930.383 503.595C926.347 511.753 917.519 519.093 905.69 524.127L902.177 525.622L904.765 526.222C906.189 526.551 908.783 526.991 910.529 527.199L913.703 527.577L916.873 527.219C918.617 527.022 920.785 526.638 921.691 526.367L923.339 525.872L921.202 528.196C920.027 529.474 918.931 530.771 918.766 531.078L918.466 531.635L921.143 531.464L923.82 531.293L922.572 532.828C921.244 534.462 920.186 536.323 920.186 537.026C920.186 537.26 919.805 538.408 919.339 539.575C918.873 540.743 918.382 542.445 918.248 543.357C917.992 545.091 918.681 552.005 919.11 552.005C919.245 552.005 919.883 550.658 920.525 549.011C922.591 543.718 928.527 534.245 931.548 531.42C932.703 530.34 932.686 529.999 931.418 528.789C928.65 526.145 928.775 523.123 931.795 519.695C933.325 517.959 933.612 518.171 932.616 520.302C931.056 523.642 931.136 523.82 935.784 527.282C940.222 530.588 941.633 531.981 943.577 534.976C944.436 536.299 945.186 537.332 945.243 537.27C945.3 537.208 945.688 535.366 946.106 533.177C946.524 530.988 947.249 528.001 947.717 526.54C948.185 525.078 948.571 523.793 948.573 523.684C948.576 523.575 947.482 524.028 946.144 524.69L943.71 525.894L941.236 526.071L938.763 526.247V525.851C938.763 525.633 939.073 525.455 939.451 525.455C940.59 525.455 943.991 524.05 945.002 523.163L945.949 522.332L943.74 522.322C940.268 522.304 938.864 521.282 937.047 517.444C936.462 516.208 935.881 514.519 935.756 513.691L935.53 512.184L934.079 511.774C933.282 511.548 932.5 511.254 932.343 511.12C931.853 510.702 934.999 509.662 936.763 509.657L938.444 509.654L940.619 510.74C941.815 511.339 943.977 512.791 945.423 513.969C950.538 518.136 952.223 518.859 953.288 517.344C954.944 514.988 954.105 512.584 950.176 508.424C948.678 506.839 947.603 505.542 947.786 505.542C948.62 505.542 952.466 508.442 954.463 510.577L956.668 512.934L956.429 515.037L956.191 517.14L956.816 517.018C957.16 516.951 957.772 516.454 958.176 515.914L958.911 514.933L958.871 512.945C958.849 511.845 958.498 510.098 958.085 509.036L957.34 507.114L958.628 508.618L959.917 510.122L961.239 508.618L962.561 507.114L961.672 509.702L960.783 512.29L961.012 513.814C961.263 515.483 962.588 517.334 963.243 516.931C963.521 516.76 963.578 516.063 963.424 514.752L963.196 512.824L966.146 509.93C968.631 507.492 971.349 505.542 972.262 505.542C972.387 505.542 971.236 506.861 969.705 508.474C965.807 512.577 965.135 514.222 966.261 516.907L966.769 518.119H967.799C968.934 518.119 971.141 516.722 975.032 513.542C979.354 510.009 983.083 508.913 986.27 510.241C987.882 510.912 987.802 511.252 985.915 511.755L984.346 512.173L984.15 513.137C983.324 517.212 981.629 520.435 979.694 521.611L978.547 522.308L976.356 522.309C975.151 522.31 974.166 522.456 974.166 522.633C974.166 523.115 978.317 525.088 979.844 525.332C982.215 525.71 981.349 526.26 978.683 526.069L976.19 525.892L973.775 524.657C972.448 523.978 971.365 523.526 971.369 523.653C971.373 523.779 971.768 525.214 972.247 526.842C972.933 529.17 974.516 536.382 974.516 537.175C974.516 537.822 975.208 537.014 976.081 535.349C977.386 532.859 979.683 530.535 984.155 527.179L987.661 524.548L987.77 523.05C987.842 522.063 987.636 521.062 987.166 520.116C986.262 518.294 986.417 518.155 987.807 519.54C990.922 522.646 991.155 526.352 988.395 528.922L988.291 529.018C987.925 529.357 987.684 529.58 987.622 529.845C987.503 530.351 988.038 531.011 989.597 532.934L989.828 533.219C994.021 538.393 998.891 546.785 1000.17 551.037L1000.58 552.397L1000.91 551.8C1001.1 551.472 1001.32 549.143 1001.41 546.625ZM912.825 524.458C917.665 522.842 923.041 520.265 925.262 518.496L925.956 517.943L925.044 519.166C922.875 522.075 917.723 524.631 913.43 524.927L910.897 525.101L912.825 524.458ZM1003.71 524.567C1001 523.84 998.036 522.238 995.958 520.376C993.756 518.403 993.815 517.967 996.075 519.517C998.087 520.897 1002.18 522.801 1005.89 524.083L1008.69 525.052L1007.11 525.056C1006.25 525.058 1004.71 524.838 1003.71 524.567ZM943.822 504.854C943.642 504.674 942.392 504.114 941.044 503.608C939.697 503.103 938.491 502.523 938.366 502.321C938.003 501.736 939.026 499.229 940.378 497.387C941.819 495.426 942.073 495.416 941.416 497.346C941.157 498.106 940.837 499.382 940.705 500.179L940.466 501.629L941.753 502.624C942.461 503.172 943.379 503.882 943.793 504.201C944.208 504.521 944.458 504.872 944.348 504.982C944.239 505.091 944.002 505.034 943.822 504.854ZM975.553 504.686C975.828 504.355 976.733 503.619 977.563 503.05L979.073 502.014V500.689C979.073 499.961 978.838 498.593 978.551 497.649C977.871 495.416 977.874 495.406 978.907 496.633C980.153 498.114 981.527 500.826 981.527 501.806V502.636L980.037 503.08C979.218 503.324 977.761 503.921 976.8 504.406L975.052 505.287L975.553 504.686ZM961.984 544.352C962.442 544.179 963.565 543.022 964.479 541.782C966.878 538.525 968.498 537.972 970.319 539.786C971.239 540.703 971.292 540.679 971.568 539.214C971.905 537.421 971.005 535.693 969.381 535.016C967.787 534.353 966.957 534.557 963.904 536.365L961.485 537.798H959.969H958.453L956.047 536.349C953.102 534.576 951.844 534.281 950.4 535.025C948.534 535.987 947.713 538.033 948.437 539.915L948.646 540.459L949.784 539.594C951.821 538.047 953.577 538.93 956.278 542.861C957.444 544.558 959.81 545.176 961.984 544.352ZM963.91 534.141L966.535 532.697L968.744 532.903L970.952 533.108L970.09 529.892C969.617 528.124 968.749 525.655 968.162 524.406L967.095 522.135L964.233 520.743C960.48 518.917 959.408 518.927 955.638 520.819L952.709 522.29L951.667 524.484C950.799 526.309 948.932 532.279 948.929 533.239C948.929 533.39 949.233 533.351 949.606 533.152C949.979 532.953 950.992 532.79 951.856 532.79H953.428L955.998 534.171C957.683 535.076 959.035 535.557 959.927 535.568L961.286 535.585L963.91 534.141ZM957.483 531.356C957.116 530.951 956.224 530.319 955.501 529.951C954.208 529.294 953.707 528.249 954.685 528.249C955.404 528.249 957.278 529.908 957.888 531.085C958.508 532.28 958.392 532.358 957.483 531.356ZM962.018 531.173C962.65 529.928 964.509 528.249 965.255 528.249C966.174 528.249 965.765 529.273 964.614 529.852C963.987 530.167 963.022 530.839 962.469 531.346L961.462 532.266L962.018 531.173ZM946.811 517.229C945.347 515.742 941.686 513.576 940.635 513.576C939.537 513.576 940.864 516.817 942.481 518.085L943.415 518.817H945.894H948.373L946.811 517.229ZM977.418 518.117C978.893 516.96 980.326 513.572 979.336 513.58C977.873 513.592 971.713 517.611 971.712 518.555C971.712 518.699 972.795 518.817 974.119 518.817H976.525L977.418 518.117ZM962.628 482.485C965.002 476.572 966.454 470.464 966.454 466.39C966.454 464.555 966.046 464.659 965.324 466.677C964.998 467.59 964.29 469.013 963.752 469.84L962.774 471.345L962.678 470.714C962.292 468.182 961.295 464.864 960.39 463.096L959.317 461L958.911 464.144C958.688 465.873 958.385 467.659 958.238 468.112L957.971 468.936L956.517 467.537C955.206 466.276 952.083 464.377 952.083 464.841C952.083 464.944 952.543 465.851 953.106 466.857C954.43 469.225 955.102 471.563 955.939 476.721C956.772 481.854 957.364 483.853 958.771 486.282L959.857 488.158L960.576 486.981C960.971 486.333 961.895 484.31 962.628 482.485ZM967.166 481.584C969.733 478.983 971.339 478.029 973.684 477.708C974.632 477.579 975.995 477.025 976.962 476.376C977.873 475.766 979.915 474.892 981.502 474.436L984.386 473.605L983.745 473.353C981.441 472.448 976.879 473.126 973.136 474.929L972.766 475.108C971.597 475.672 971.203 475.862 971.073 475.75C971.007 475.693 971.008 475.557 971.01 475.353C971.011 475.313 971.011 475.271 971.011 475.226C971.011 474.257 971.875 473.253 974.251 471.46L976.444 469.805L974.692 470.035C972.652 470.303 969.711 471.644 968.668 472.783C967.96 473.555 964.251 483.882 964.682 483.882C964.8 483.882 965.918 482.848 967.166 481.584ZM936.135 481.574C939.234 479.413 940.341 478.518 940.341 478.171C940.341 477.521 938.007 476.547 936.45 476.546L935.013 476.546L933.471 477.668C932.523 478.357 930.847 479.073 929.124 479.525C927.582 479.929 925.847 480.515 925.268 480.827L924.217 481.394L927.897 481.375L931.578 481.356L932.805 481.888C934.106 482.453 934.994 482.369 936.135 481.574ZM954.678 481.349C953.073 471.865 950.831 469.209 944.429 469.209H942.861L943.529 469.951C944.536 471.07 948.245 473.85 948.453 473.643C948.553 473.543 948.455 473.094 948.236 472.646L947.837 471.83L948.598 472.703C949.017 473.183 950.149 475.148 951.115 477.07C953.73 482.272 955.116 483.937 954.678 481.349ZM986.906 481.961C987.75 481.609 989.408 481.431 991.944 481.421L995.723 481.406L994.496 480.771C993.821 480.422 992.086 479.859 990.64 479.52C988.842 479.098 987.522 478.531 986.464 477.724L984.917 476.546L983.485 476.546C982.004 476.547 979.734 477.471 979.517 478.162C979.45 478.378 979.913 478.886 980.548 479.289C981.183 479.693 982.468 480.577 983.405 481.254L983.577 481.378C984.546 482.08 984.972 482.388 985.416 482.416C985.763 482.438 986.121 482.288 986.76 482.022L986.906 481.961ZM949.279 478.281C949.279 478.083 949.065 477.409 948.802 476.783L948.325 475.646L945.735 474.441L943.145 473.236L940.166 473.118C938.527 473.052 936.792 473.151 936.31 473.337L935.433 473.676L936.485 473.912C938.821 474.436 941.821 475.613 943.145 476.524C943.969 477.092 945.263 477.585 946.285 477.72C947.241 477.846 948.18 478.106 948.371 478.296C948.822 478.746 949.279 478.738 949.279 478.281ZM972.764 469.734C972.764 469.637 972.685 469.559 972.589 469.559C972.492 469.559 972.413 469.637 972.413 469.734C972.413 469.83 972.492 469.908 972.589 469.908C972.685 469.908 972.764 469.83 972.764 469.734Z" fill="black"/>
</svg>
