<svg width="1920" height="1080" viewBox="0 0 1920 1080" fill="none" xmlns="http://www.w3.org/2000/svg">
<path fill-rule="evenodd" clip-rule="evenodd" d="M1920 0H0V1080H1920V0ZM960.778 375.865C961.158 375.24 961.827 373.707 962.266 372.459C963.394 369.245 963.784 369.029 963.526 371.76C963.408 373.009 963.215 374.424 963.097 374.904C962.739 376.357 965.737 371.215 966.507 369.055C966.901 367.948 967.423 365.786 967.667 364.249L968.11 361.454L968.549 362.502C968.79 363.079 969.07 364.611 969.17 365.908C969.402 368.894 969.696 368.883 970.428 365.858C971.102 363.074 971.182 359.471 970.619 357.242C970.132 355.315 969.866 355.306 968.665 357.175C968.14 357.991 967.673 358.716 967.627 358.787C967.581 358.856 967.101 358.566 966.561 358.142L965.578 357.371L965.282 358.539C965.12 359.182 964.868 360.021 964.722 360.404L964.458 361.1L963.864 359.955C963.492 359.239 962.687 358.528 961.713 358.056L960.156 357.303L958.492 357.99L956.827 358.678L956.07 360.023L955.313 361.368L955.119 360.712C955.012 360.352 954.82 359.467 954.692 358.747C954.426 357.252 954.202 357.153 953.31 358.135C952.492 359.036 952.14 359.017 951.747 358.048C951.571 357.616 951.042 356.795 950.57 356.224L949.712 355.186L949.277 357.272C948.729 359.897 949.001 364.096 949.853 366.17L950.499 367.742L950.742 365.122C950.876 363.681 951.136 362.109 951.32 361.629L951.654 360.755L951.869 362.153C952.462 365.989 952.838 367.44 953.713 369.256L954.666 371.236L954.905 368.343C955.176 365.058 955.447 364.439 955.756 366.397C956.387 370.404 958.874 377 959.753 377C959.937 377 960.399 376.489 960.778 375.865ZM981.87 359.433C983.641 355.631 985.709 350.043 986.191 347.752C986.671 345.472 986.786 345.471 988.485 347.742C990.327 350.203 990.919 351.438 991.674 354.403L992.312 356.908L992.903 355.512C994.651 351.384 994.974 347.745 993.857 344.771C991.596 338.747 985.108 329.139 983.302 329.139C980.868 329.139 975.187 337.633 975.796 340.362C976.211 342.223 976.326 342.201 977.481 340.046C978.732 337.712 982.389 332.982 982.942 332.982C983.484 332.982 985.209 335.575 986.96 339.021L988.596 342.239L987.399 340.87C985.89 339.144 985.215 339.332 984.908 341.561C984.783 342.471 984.499 343.86 984.276 344.649L983.871 346.082L983.575 344.685C983.161 342.727 982.226 340.318 981.879 340.318C981.214 340.318 979.727 342.546 979.918 343.258C981.156 347.872 980.969 358.324 979.561 363.2L979.359 363.899L979.946 363.101C980.268 362.661 981.134 361.012 981.87 359.433ZM939.818 360.843C938.896 356.671 939.006 346.815 940.016 343.24L940.227 342.494L939.202 341.35C938.62 340.701 938.005 340.313 937.778 340.453C937.301 340.747 936.312 343.922 936.305 345.186L936.299 346.083L935.964 345.559C935.779 345.271 935.459 344.17 935.254 343.114C934.602 339.763 934.554 339.62 934.061 339.62C933.796 339.62 933.089 340.176 932.491 340.855C931.892 341.534 931.403 342.001 931.403 341.891C931.403 341.294 935.607 334.009 936.528 333.01C936.945 332.558 940.758 337.161 942.509 340.231C944.465 343.661 944.721 340.035 942.813 335.919L941.604 333.312L939.511 331.226C938.36 330.078 937.111 329.14 936.736 329.14C934.585 329.14 927.559 339.749 925.616 345.933L925.005 347.88L925.578 350.699C925.893 352.25 926.494 354.282 926.913 355.216L927.675 356.913L928.133 354.699C929.065 350.187 933.506 343.851 933.506 347.034C933.506 349.046 939.721 364.179 940.093 363.07C940.165 362.854 940.041 361.852 939.818 360.843ZM968.014 353.216C970.329 351.783 970.44 351.521 969.044 350.799L968.032 350.275H960.145H952.258L950.944 350.739C949.25 351.336 949.286 351.555 951.294 352.838C953.975 354.551 954.373 354.626 960.353 354.544L965.994 354.467L968.014 353.216ZM953.28 347.683C954.227 347.365 955.174 346.834 955.383 346.503L955.764 345.9L954.757 345.1L953.75 344.299L953.99 343.208C954.156 342.456 954.039 341.756 953.613 340.956L952.995 339.795L952.855 340.493C952.512 342.215 950.797 341.997 948.445 339.933L946.862 338.545L946.646 339.868C946.527 340.596 946.282 341.945 946.102 342.866L945.775 344.541L946.438 345.836C947.925 348.74 949.145 349.07 953.28 347.683ZM971.85 347.971C972.364 347.569 973.089 346.643 973.462 345.913L974.142 344.586L973.592 341.667C972.952 338.263 972.917 338.199 972.214 339.199C971.51 340.2 968.74 341.802 967.969 341.654C967.635 341.59 967.265 341.146 967.147 340.666L966.933 339.795L966.329 340.94C965.924 341.707 965.797 342.466 965.943 343.239L966.16 344.394L965.256 344.984C963.468 346.152 964.462 347.278 968.044 348.141L968.131 348.162C969.862 348.579 970.466 348.725 970.959 348.554C971.233 348.459 971.472 348.267 971.85 347.971ZM1001.41 342.625L1001.58 338.048L1000.52 335.428C999.933 333.987 999.349 332.379 999.219 331.856C999.088 331.332 998.366 330.207 997.615 329.357C995.808 327.31 995.832 327.274 998.861 327.468L1001.47 327.635L1001.17 327.078C1001 326.77 999.899 325.581 998.728 324.434C996.204 321.962 996.111 321.662 998.089 322.361C998.908 322.65 1001.18 323.067 1003.14 323.286L1006.71 323.685L1011.47 322.906C1014.09 322.478 1016.55 322.011 1016.94 321.869L1017.64 321.612L1015.27 320.613C1007.46 317.318 1000.56 312.854 995.533 307.845L991.837 304.162L990.012 300.61L988.187 297.06L988.192 294.672C988.201 290.538 989.387 286.694 991.272 284.686L992.174 283.725H993.872C997.105 283.725 1002.33 286.304 1006.94 290.174C1008.29 291.313 1008.18 291.295 1004.73 289.849C1003.15 289.182 1000.5 288.217 998.855 287.705L995.859 286.774L995.021 287.155C992.382 288.354 991.213 294.591 993.015 297.861L993.97 299.596L995.197 299.894C995.872 300.057 1000.13 300.214 1004.66 300.242L1012.9 300.292L1016.23 299.686C1023.86 298.296 1029.23 295.188 1031.69 290.728L1032.37 289.489L1032.16 290.362C1030.25 298.279 1021.13 304.452 1007.85 306.821C1005.62 307.22 1003.68 307.715 1003.55 307.921C1002.53 309.578 1008.18 314.68 1013.85 317.216C1017.69 318.933 1017.9 318.82 1015 316.599C1013.46 315.417 1011.28 313.56 1010.17 312.471L1008.14 310.492L1008.59 310.252C1008.84 310.121 1009.83 309.899 1010.8 309.761C1022.6 308.063 1034.09 299.019 1035.6 290.239L1036 287.917L1035.6 285.594C1034.12 276.996 1026.01 268.164 1014.18 262.26C1010.09 260.22 1009.86 260.361 1013.34 262.78C1025.44 271.189 1029.36 283.452 1021.31 287.667L1019.91 288.401L1016.75 288.393C1012.63 288.382 1011.59 288.065 1004.31 284.596C1000.94 282.989 997.595 281.57 996.885 281.443C996.175 281.315 995.322 280.912 994.991 280.546L994.388 279.882H992.856C990.796 279.882 987.489 281.069 986.538 282.15C986.113 282.633 985.307 284.456 984.746 286.2L983.727 289.372L983.508 288.557C983.388 288.109 983.287 286.616 983.284 285.24L983.279 282.737L981.439 281.274C979.327 279.595 977.894 278.825 975.33 277.989L973.515 277.397L972.175 278.085C968.358 280.045 963.25 284.314 960.974 287.447L959.919 288.898L958.23 286.622C955.467 282.902 947.606 277.182 945.847 277.611C943.572 278.166 940.938 279.424 939 280.881L936.835 282.509L936.63 285.738C936.377 289.721 936.224 289.905 935.47 287.136C935.142 285.933 934.448 284.163 933.927 283.204L932.979 281.46L931.052 280.682C928.777 279.764 925.746 279.622 925.095 280.404C924.856 280.691 924.009 281.096 923.212 281.305C922.415 281.513 919.003 282.993 915.629 284.594C908.335 288.054 907.3 288.372 903.185 288.411L900.031 288.441L898.343 287.613C896.281 286.601 895.094 284.917 894.554 282.235L894.153 280.246L894.582 278.055C894.818 276.851 895.582 274.764 896.279 273.419L897.548 270.974L900.892 267.655C902.732 265.83 905.38 263.563 906.776 262.617C910.179 260.312 909.781 260.258 905.413 262.431C894.51 267.854 886.965 275.623 884.594 283.868L884 285.932L884.152 288.825L884.305 291.717L885.634 294.398C888.884 300.952 897.003 306.789 906.05 309.077C907.898 309.544 909.862 309.926 910.416 309.926C911.04 309.926 911.423 310.11 911.423 310.41C911.423 311.046 907.528 314.66 904.597 316.744C901.5 318.947 901.908 319.059 906.001 317.127C911.874 314.354 916.33 310.624 916.33 308.482V307.512L915.191 307.329C900.533 304.975 892.447 300.642 888.677 293.122C887.216 290.208 887.295 289.416 888.822 291.676C891.74 295.994 897.002 298.712 904.587 299.819C908.12 300.335 919.791 300.461 923.437 300.023L925.813 299.737L926.852 297.932C928.698 294.725 927.515 288.203 924.908 287.215L924.059 286.893L921.509 287.544C920.106 287.902 917.469 288.835 915.648 289.618C911.743 291.297 911.58 291.278 913.811 289.403C917.296 286.474 922.173 284.036 925.532 283.541L927.198 283.296L928.56 284.654L929.923 286.011L930.682 288.449C931.1 289.79 931.534 292.177 931.648 293.754L931.855 296.621L930.383 299.595C926.347 307.753 917.519 315.093 905.69 320.127L902.177 321.622L904.765 322.222C906.189 322.551 908.783 322.991 910.529 323.199L913.703 323.577L916.873 323.219C918.617 323.022 920.785 322.638 921.691 322.367L923.339 321.872L921.202 324.196C920.027 325.474 918.931 326.771 918.766 327.078L918.466 327.635L921.143 327.464L923.82 327.293L922.572 328.828C921.244 330.462 920.186 332.323 920.186 333.026C920.186 333.26 919.805 334.408 919.339 335.575C918.873 336.743 918.382 338.445 918.248 339.357C917.992 341.091 918.681 348.005 919.11 348.005C919.245 348.005 919.883 346.658 920.525 345.011C922.591 339.718 928.527 330.245 931.548 327.42C932.703 326.34 932.686 325.999 931.418 324.789C928.65 322.145 928.775 319.123 931.795 315.695C933.325 313.959 933.612 314.171 932.616 316.302C931.056 319.642 931.136 319.82 935.784 323.282C940.222 326.588 941.633 327.981 943.577 330.976C944.436 332.299 945.186 333.332 945.243 333.27C945.3 333.208 945.688 331.366 946.106 329.177C946.524 326.988 947.249 324.001 947.717 322.54C948.185 321.078 948.571 319.793 948.573 319.684C948.576 319.575 947.482 320.028 946.144 320.69L943.71 321.894L941.236 322.071L938.763 322.247V321.851C938.763 321.633 939.073 321.454 939.451 321.454C940.59 321.454 943.991 320.05 945.002 319.163L945.949 318.332L943.74 318.322C940.268 318.304 938.864 317.282 937.047 313.444C936.462 312.208 935.881 310.519 935.756 309.691L935.53 308.184L934.079 307.774C933.282 307.548 932.5 307.254 932.343 307.12C931.853 306.702 934.999 305.662 936.763 305.657L938.444 305.654L940.619 306.74C941.815 307.339 943.977 308.791 945.423 309.969C950.538 314.136 952.223 314.859 953.288 313.344C954.944 310.988 954.105 308.584 950.176 304.424C948.678 302.839 947.603 301.542 947.786 301.542C948.62 301.542 952.466 304.442 954.463 306.577L956.668 308.934L956.429 311.037L956.191 313.14L956.816 313.018C957.16 312.951 957.772 312.454 958.176 311.914L958.911 310.933L958.871 308.945C958.849 307.845 958.498 306.098 958.085 305.036L957.34 303.114L958.628 304.618L959.917 306.122L961.239 304.618L962.561 303.114L961.672 305.702L960.783 308.29L961.012 309.814C961.263 311.483 962.588 313.334 963.243 312.931C963.521 312.76 963.578 312.063 963.424 310.752L963.196 308.824L966.146 305.93C968.631 303.492 971.349 301.542 972.262 301.542C972.387 301.542 971.236 302.861 969.705 304.474C965.807 308.577 965.135 310.222 966.261 312.907L966.769 314.119H967.799C968.934 314.119 971.141 312.722 975.032 309.541C979.354 306.009 983.083 304.913 986.27 306.241C987.882 306.912 987.802 307.252 985.915 307.755L984.346 308.173L984.15 309.137C983.324 313.212 981.629 316.435 979.694 317.611L978.547 318.308L976.356 318.309C975.151 318.31 974.166 318.456 974.166 318.633C974.166 319.115 978.317 321.088 979.844 321.332C982.215 321.71 981.349 322.26 978.683 322.069L976.19 321.892L973.775 320.657C972.448 319.978 971.365 319.526 971.369 319.653C971.373 319.779 971.768 321.215 972.247 322.842C972.933 325.17 974.516 332.382 974.516 333.175C974.516 333.822 975.208 333.014 976.081 331.349C977.386 328.859 979.683 326.535 984.155 323.179L987.661 320.548L987.77 319.05C987.842 318.063 987.636 317.062 987.166 316.116C986.262 314.294 986.417 314.155 987.807 315.54C990.922 318.646 991.155 322.352 988.395 324.922L988.291 325.018C987.925 325.357 987.684 325.58 987.622 325.845C987.503 326.351 988.038 327.011 989.597 328.934L989.828 329.219C994.021 334.393 998.891 342.785 1000.17 347.037L1000.58 348.397L1000.91 347.8C1001.1 347.472 1001.32 345.143 1001.41 342.625ZM912.825 320.458C917.665 318.842 923.041 316.265 925.262 314.496L925.956 313.943L925.044 315.166C922.875 318.075 917.723 320.631 913.43 320.927L910.897 321.101L912.825 320.458ZM1003.71 320.567C1001 319.84 998.036 318.238 995.958 316.376C993.756 314.403 993.815 313.967 996.075 315.517C998.087 316.897 1002.18 318.801 1005.89 320.083L1008.69 321.052L1007.11 321.056C1006.25 321.058 1004.71 320.838 1003.71 320.567ZM943.822 300.854C943.642 300.674 942.392 300.114 941.044 299.608C939.697 299.103 938.491 298.523 938.366 298.321C938.003 297.736 939.026 295.229 940.378 293.387C941.819 291.426 942.073 291.416 941.416 293.346C941.157 294.106 940.837 295.382 940.705 296.179L940.466 297.629L941.753 298.624C942.461 299.172 943.379 299.882 943.793 300.201C944.208 300.521 944.458 300.872 944.348 300.982C944.239 301.091 944.002 301.034 943.822 300.854ZM975.553 300.686C975.828 300.355 976.733 299.619 977.563 299.05L979.073 298.014V296.689C979.073 295.961 978.838 294.593 978.551 293.649C977.871 291.416 977.874 291.406 978.907 292.633C980.153 294.114 981.527 296.826 981.527 297.806V298.636L980.037 299.08C979.218 299.324 977.761 299.921 976.8 300.406L975.052 301.287L975.553 300.686ZM961.984 340.352C962.442 340.179 963.565 339.022 964.479 337.782C966.878 334.525 968.498 333.972 970.319 335.786C971.239 336.703 971.292 336.679 971.568 335.215C971.905 333.421 971.005 331.693 969.381 331.016C967.787 330.353 966.957 330.557 963.904 332.365L961.485 333.798H959.969H958.453L956.047 332.349C953.102 330.576 951.844 330.281 950.4 331.025C948.534 331.987 947.713 334.033 948.437 335.915L948.646 336.459L949.784 335.594C951.821 334.047 953.577 334.93 956.278 338.861C957.444 340.558 959.81 341.176 961.984 340.352ZM963.91 330.141L966.535 328.697L968.744 328.903L970.952 329.108L970.09 325.892C969.617 324.124 968.749 321.655 968.162 320.406L967.095 318.135L964.233 316.743C960.48 314.917 959.408 314.927 955.638 316.819L952.709 318.29L951.667 320.484C950.799 322.309 948.932 328.279 948.929 329.239C948.929 329.39 949.233 329.351 949.606 329.152C949.979 328.953 950.992 328.79 951.856 328.79H953.428L955.998 330.171C957.683 331.076 959.035 331.557 959.927 331.568L961.286 331.585L963.91 330.141ZM957.483 327.356C957.116 326.951 956.224 326.319 955.501 325.951C954.208 325.294 953.707 324.249 954.685 324.249C955.404 324.249 957.278 325.908 957.888 327.085C958.508 328.28 958.392 328.358 957.483 327.356ZM962.018 327.173C962.65 325.928 964.509 324.249 965.255 324.249C966.174 324.249 965.765 325.273 964.614 325.852C963.987 326.167 963.022 326.839 962.469 327.345L961.462 328.266L962.018 327.173ZM946.811 313.229C945.347 311.742 941.686 309.576 940.635 309.576C939.537 309.576 940.864 312.817 942.481 314.085L943.415 314.817H945.894H948.373L946.811 313.229ZM977.418 314.117C978.893 312.96 980.326 309.572 979.336 309.58C977.873 309.592 971.713 313.611 971.712 314.555C971.712 314.699 972.795 314.817 974.119 314.817H976.525L977.418 314.117ZM962.628 278.485C965.002 272.572 966.454 266.464 966.454 262.39C966.454 260.555 966.046 260.659 965.324 262.677C964.998 263.59 964.29 265.013 963.752 265.84L962.774 267.345L962.678 266.714C962.292 264.182 961.295 260.864 960.39 259.096L959.317 257L958.911 260.144C958.688 261.873 958.385 263.659 958.238 264.112L957.971 264.936L956.517 263.537C955.206 262.276 952.083 260.377 952.083 260.841C952.083 260.944 952.543 261.851 953.106 262.857C954.43 265.225 955.102 267.563 955.939 272.721C956.772 277.854 957.364 279.853 958.771 282.282L959.857 284.158L960.576 282.981C960.971 282.333 961.895 280.31 962.628 278.485ZM967.166 277.584C969.733 274.983 971.339 274.029 973.684 273.708C974.632 273.579 975.995 273.025 976.962 272.376C977.873 271.766 979.915 270.892 981.502 270.436L984.386 269.605L983.745 269.353C981.441 268.448 976.879 269.126 973.136 270.929L972.766 271.108C971.597 271.672 971.203 271.862 971.073 271.75C971.007 271.693 971.008 271.557 971.01 271.353C971.011 271.313 971.011 271.271 971.011 271.226C971.011 270.257 971.875 269.253 974.251 267.46L976.444 265.805L974.692 266.035C972.652 266.303 969.711 267.644 968.668 268.783C967.96 269.555 964.251 279.882 964.682 279.882C964.8 279.882 965.918 278.848 967.166 277.584ZM936.135 277.574C939.234 275.413 940.341 274.518 940.341 274.171C940.341 273.521 938.007 272.547 936.45 272.546L935.013 272.546L933.471 273.668C932.523 274.357 930.847 275.073 929.124 275.525C927.582 275.929 925.847 276.515 925.268 276.827L924.217 277.394L927.897 277.375L931.578 277.356L932.805 277.888C934.106 278.453 934.994 278.369 936.135 277.574ZM954.678 277.349C953.073 267.865 950.831 265.209 944.429 265.209H942.861L943.529 265.951C944.536 267.07 948.245 269.85 948.453 269.643C948.553 269.543 948.455 269.094 948.236 268.646L947.837 267.83L948.598 268.703C949.017 269.183 950.149 271.148 951.115 273.07C953.73 278.272 955.116 279.937 954.678 277.349ZM986.906 277.961C987.75 277.609 989.408 277.431 991.944 277.421L995.723 277.406L994.496 276.771C993.821 276.422 992.086 275.859 990.64 275.52C988.842 275.098 987.522 274.531 986.464 273.724L984.917 272.546L983.485 272.546C982.004 272.547 979.734 273.471 979.517 274.162C979.45 274.378 979.913 274.886 980.548 275.289C981.183 275.693 982.468 276.577 983.405 277.254L983.577 277.378C984.546 278.08 984.972 278.388 985.416 278.416C985.763 278.438 986.121 278.288 986.76 278.022L986.906 277.961ZM949.279 274.281C949.279 274.083 949.065 273.409 948.802 272.783L948.325 271.646L945.735 270.441L943.145 269.236L940.166 269.118C938.527 269.052 936.792 269.151 936.31 269.337L935.433 269.676L936.485 269.912C938.821 270.436 941.821 271.613 943.145 272.524C943.969 273.092 945.263 273.585 946.285 273.72C947.241 273.846 948.18 274.106 948.371 274.296C948.822 274.746 949.279 274.738 949.279 274.281ZM972.764 265.734C972.764 265.637 972.685 265.559 972.589 265.559C972.492 265.559 972.413 265.637 972.413 265.734C972.413 265.83 972.492 265.908 972.589 265.908C972.685 265.908 972.764 265.83 972.764 265.734Z" fill="#D9D9D9"/>
</svg>
