<svg width="1920" height="1080" viewBox="0 0 1920 1080" fill="none" xmlns="http://www.w3.org/2000/svg">
<g clip-path="url(#clip0_409_19)">
<path d="M126 659L0 726.5V1080H1920V660.5L1830 669L1716 644.5L1591 591.5L1496.5 626.5L1367.5 550L1240 532L1088 451L960 560L832 451L740.5 506L637.5 560H465.5L393.5 641.5L296.5 672.5L126 659Z" fill="#1C1A1C"/>
<g clip-path="url(#clip1_409_19)">
<g clip-path="url(#clip2_409_19)">
<path fill-rule="evenodd" clip-rule="evenodd" d="M962.092 513.893C961.215 516.397 959.876 519.471 959.117 520.723C958.357 521.975 957.434 523 957.065 523C955.307 523 950.333 509.772 949.07 501.736C948.452 497.809 947.911 499.051 947.368 505.638L946.891 511.44L944.984 507.47C943.234 503.828 942.481 500.918 941.296 493.225L940.865 490.423L940.197 492.175C939.83 493.138 939.31 496.29 939.042 499.18L938.555 504.435L937.263 501.282C935.559 497.122 935.015 488.702 936.11 483.437L936.98 479.253L938.696 481.335C939.641 482.48 940.7 484.126 941.052 484.994C941.838 486.936 942.541 486.975 944.178 485.169C945.962 483.199 946.41 483.398 946.942 486.395C947.198 487.839 947.583 489.613 947.797 490.336L948.185 491.65L949.699 488.953L951.213 486.257L954.543 484.878L957.873 483.498L960.987 485.01C962.934 485.956 964.545 487.382 965.289 488.818L966.477 491.115L967.006 489.718C967.297 488.95 967.801 487.267 968.126 485.979L968.718 483.636L970.683 485.183C971.764 486.033 972.724 486.615 972.816 486.475C972.908 486.334 973.843 484.879 974.892 483.242C977.295 479.495 977.828 479.514 978.801 483.377C979.928 487.847 979.768 495.072 978.419 500.656C976.955 506.721 976.366 506.744 975.904 500.757C975.703 498.155 975.144 495.082 974.66 493.926L973.783 491.824L972.896 497.429C972.409 500.511 971.365 504.848 970.576 507.066C969.035 511.398 963.04 521.71 963.755 518.797C963.992 517.833 964.378 514.996 964.614 512.491C965.129 507.014 964.349 507.447 962.092 513.893ZM1009.95 464.347C1008.99 468.94 1004.85 480.146 1001.31 487.771C999.835 490.937 998.103 494.245 997.458 495.126L996.284 496.727L996.688 495.326C999.505 485.547 999.879 464.586 997.403 455.333C997.021 453.906 999.994 449.438 1001.33 449.438C1002.02 449.438 1003.89 454.269 1004.72 458.195L1005.31 460.997L1006.12 458.123C1006.56 456.542 1007.13 453.755 1007.38 451.931C1008 447.46 1009.35 447.084 1012.37 450.544L1014.76 453.291L1011.49 446.836C1007.99 439.926 1004.53 434.725 1003.45 434.725C1002.35 434.725 995.031 444.212 992.528 448.893C990.218 453.214 989.987 453.257 989.157 449.525C987.939 444.053 999.302 427.019 1004.17 427.019C1007.78 427.019 1020.76 446.287 1025.29 458.367C1027.52 464.332 1026.87 471.63 1023.38 479.909L1022.19 482.707L1020.92 477.684C1019.41 471.739 1018.22 469.261 1014.54 464.325C1011.14 459.772 1010.91 459.773 1009.95 464.347ZM917.585 455.298C915.566 462.467 915.345 482.233 917.19 490.599C917.637 492.622 917.883 494.631 917.739 495.064C916.996 497.289 904.563 466.942 904.563 462.905C904.563 456.523 895.679 469.228 893.815 478.277L892.9 482.717L891.376 479.313C890.537 477.442 889.335 473.366 888.705 470.256L887.558 464.602L888.782 460.699C892.668 448.297 906.721 427.02 911.025 427.02C911.775 427.02 914.273 428.903 916.576 431.204L920.763 435.388L923.181 440.616C926.998 448.871 926.486 456.141 922.572 449.262C919.069 443.106 911.442 433.876 910.608 434.782C908.766 436.785 900.356 451.395 900.356 452.592C900.356 452.812 901.336 451.876 902.532 450.514C903.729 449.152 905.143 448.038 905.674 448.038C906.659 448.038 906.757 448.324 908.06 455.044C908.471 457.163 909.11 459.37 909.479 459.948L910.151 460.999L910.162 459.199C910.176 456.666 912.154 450.297 913.109 449.707C913.562 449.428 914.793 450.206 915.957 451.508L918.007 453.801L917.585 455.298ZM975.652 470.456C978.444 471.905 978.221 472.429 973.59 475.304L969.549 477.813L958.265 477.967C946.304 478.131 945.507 477.981 940.146 474.546C936.129 471.972 936.057 471.534 939.445 470.335L942.074 469.406H957.85H973.626L975.652 470.456ZM948.325 461.841C947.906 462.506 946.013 463.57 944.118 464.208C935.848 466.988 933.407 466.327 930.432 460.503L929.105 457.906L929.76 454.548C930.12 452.701 930.609 449.996 930.848 448.536L931.28 445.881L934.446 448.666C939.152 452.805 942.582 453.242 943.269 449.789L943.548 448.388L944.784 450.716C945.636 452.321 945.871 453.724 945.539 455.232L945.058 457.421L947.072 459.026L949.086 460.632L948.325 461.841ZM984.489 460.657C983.742 462.121 982.291 463.978 981.264 464.785C980.508 465.379 980.029 465.764 979.482 465.954C978.478 466.302 977.246 465.994 973.651 465.126C966.486 463.395 964.497 461.137 968.073 458.795L969.882 457.611L969.447 455.296C969.156 453.745 969.411 452.223 970.22 450.685L971.428 448.388L971.857 450.136C972.093 451.097 972.833 451.989 973.501 452.117C975.043 452.414 980.584 449.201 981.992 447.194C983.397 445.189 983.468 445.316 984.749 452.142L985.848 457.997L984.489 460.657ZM1040.73 444.885L1040.4 454.064C1040.22 459.113 1039.77 463.783 1039.4 464.441L1038.73 465.639L1037.91 462.913C1035.35 454.384 1025.61 437.555 1017.23 427.179C1013.75 422.879 1012.56 421.477 1012.81 420.413C1012.95 419.833 1013.51 419.354 1014.36 418.562C1019.88 413.408 1019.41 405.976 1013.18 399.748C1010.4 396.97 1010.09 397.249 1011.9 400.903C1012.84 402.799 1013.25 404.806 1013.11 406.786L1012.89 409.791L1005.88 415.066C996.933 421.796 992.338 426.458 989.727 431.452C987.981 434.791 986.597 436.41 986.597 435.114C986.597 433.522 983.43 419.06 982.058 414.391C981.1 411.127 980.309 408.249 980.301 407.995C980.293 407.742 982.459 408.648 985.115 410.01L989.945 412.485L994.931 412.841C1000.26 413.223 1002 412.12 997.254 411.362C994.201 410.874 985.896 406.917 985.896 405.95C985.896 405.595 987.867 405.302 990.278 405.301L994.66 405.298L996.953 403.901C1000.83 401.542 1004.22 395.079 1005.87 386.907L1006.26 384.974L1009.4 384.134C1013.17 383.126 1013.33 382.445 1010.11 381.098C1003.73 378.437 996.273 380.634 987.628 387.718C979.845 394.096 975.43 396.897 973.161 396.897H971.1L970.084 394.467C967.833 389.083 969.177 385.784 976.973 377.555C980.036 374.321 982.338 371.676 982.088 371.676C980.262 371.676 974.825 375.587 969.855 380.475L963.954 386.279L964.409 390.145C964.718 392.775 964.602 394.172 964.046 394.515C962.737 395.323 960.087 391.612 959.584 388.264L959.126 385.209L960.904 380.018L962.682 374.829L960.038 377.845L957.394 380.861L954.816 377.845L952.239 374.829L953.73 378.682C954.555 380.813 955.258 384.316 955.301 386.521L955.381 390.508L953.912 392.476C953.104 393.559 951.879 394.555 951.192 394.69L949.94 394.935L950.417 390.718L950.895 386.5L946.485 381.773C942.49 377.491 934.797 371.676 933.128 371.676C932.762 371.676 934.913 374.276 937.908 377.456C945.768 385.798 947.447 390.62 944.134 395.344C942.004 398.382 938.633 396.931 928.401 388.575C925.509 386.213 921.185 383.3 918.792 382.101L914.441 379.921L911.079 379.929C907.55 379.937 901.257 382.024 902.238 382.861C902.552 383.13 904.115 383.72 905.711 384.173L908.611 384.996L909.065 388.017C909.314 389.678 910.476 393.065 911.647 395.543C915.282 403.24 918.09 405.291 925.036 405.326L929.453 405.347L927.559 407.013C925.536 408.793 918.733 411.608 916.456 411.608C915.699 411.608 915.08 411.966 915.08 412.403V413.197L920.027 412.844L924.974 412.49L929.843 410.075C932.521 408.747 934.708 407.84 934.703 408.058C934.698 408.276 933.927 410.854 932.99 413.784C932.054 416.716 930.603 422.706 929.768 427.095C928.932 431.486 928.155 435.179 928.041 435.303C927.927 435.427 926.427 433.356 924.708 430.702C920.82 424.696 917.998 421.903 909.12 415.272C899.823 408.33 899.663 407.974 902.784 401.275C904.775 397.002 904.201 396.577 901.142 400.058C895.101 406.933 894.85 412.993 900.388 418.295C902.923 420.721 902.957 421.406 900.648 423.571C894.604 429.238 882.73 448.235 878.598 458.849C877.313 462.151 876.038 464.853 875.767 464.853C874.909 464.853 873.531 450.988 874.042 447.51C874.311 445.681 875.294 442.269 876.225 439.927C877.156 437.584 877.919 435.283 877.919 434.813C877.919 433.405 880.036 429.671 882.693 426.395L885.189 423.317L879.833 423.66L874.479 424.004L875.078 422.886C875.409 422.27 877.602 419.669 879.953 417.107L884.227 412.446L880.931 413.438C879.118 413.983 874.781 414.752 871.293 415.147L864.952 415.864L858.602 415.107C855.109 414.69 849.921 413.808 847.074 413.147L841.896 411.945L848.924 408.946C872.584 398.851 890.244 384.13 898.317 367.772L901.261 361.807L900.848 356.057C900.62 352.895 899.75 348.107 898.915 345.418L897.396 340.529L894.671 337.807L891.947 335.085L888.614 335.577C881.893 336.568 872.139 341.459 865.168 347.332C860.706 351.092 861.03 351.13 868.842 347.763C872.485 346.193 877.76 344.321 880.565 343.604L885.667 342.299L887.365 342.944C892.58 344.925 894.945 358.004 891.253 364.436L889.175 368.057L884.423 368.629C877.13 369.508 853.784 369.254 846.718 368.22C831.545 366 821.018 360.549 815.182 351.89C812.128 347.358 811.968 348.947 814.891 354.79C822.432 369.87 838.608 378.56 867.927 383.282L870.206 383.648V385.592C870.206 389.89 861.292 397.369 849.544 402.93C841.359 406.804 840.541 406.58 846.737 402.162C852.6 397.982 860.39 390.735 860.39 389.459C860.39 388.858 859.625 388.489 858.376 388.489C857.269 388.489 853.339 387.723 849.643 386.786C831.546 382.199 815.306 370.493 808.805 357.35L806.146 351.973L805.841 346.172L805.536 340.371L806.724 336.232C811.467 319.697 826.559 304.118 848.369 293.241C857.106 288.884 857.902 288.993 851.096 293.614C848.302 295.511 843.006 300.058 839.326 303.719L832.636 310.374L830.098 315.278C828.703 317.975 827.175 322.159 826.703 324.575L825.846 328.968L826.648 332.958C827.729 338.335 830.102 341.714 834.226 343.742L837.603 345.403L843.913 345.343C852.143 345.264 854.214 344.627 868.804 337.688C875.552 334.478 882.378 331.509 883.972 331.091C885.566 330.673 887.261 329.86 887.739 329.285C889.041 327.718 895.105 328.002 899.654 329.843L903.511 331.403L905.405 334.9C906.447 336.824 907.836 340.372 908.492 342.786C910 348.339 910.308 347.969 910.813 339.981L911.223 333.506L915.554 330.242C919.429 327.32 924.699 324.797 929.249 323.684C932.769 322.823 948.493 334.295 954.019 341.755L957.399 346.319L959.508 343.409C964.06 337.127 974.279 328.565 981.914 324.635L984.594 323.255L988.224 324.442C993.354 326.119 996.221 327.664 1000.44 331.029L1004.13 333.963L1004.14 338.982C1004.14 341.743 1004.34 344.737 1004.58 345.636L1005.02 347.27L1007.06 340.909C1008.18 337.41 1009.79 333.755 1010.64 332.787C1012.55 330.619 1019.16 328.239 1023.28 328.239H1026.35L1027.55 329.571C1028.22 330.303 1029.92 331.112 1031.34 331.368C1032.76 331.624 1039.45 334.47 1046.2 337.692C1060.77 344.649 1062.84 345.284 1071.09 345.306L1077.4 345.321L1080.2 343.85C1096.31 335.397 1088.45 310.805 1064.26 293.942C1057.3 289.09 1057.75 288.807 1065.93 292.899C1089.61 304.739 1105.83 322.451 1108.79 339.694L1109.58 344.352L1108.79 349.009C1105.77 366.616 1082.78 384.752 1059.17 388.157C1057.24 388.435 1055.25 388.879 1054.76 389.143L1053.85 389.625L1057.91 393.593C1060.15 395.776 1064.5 399.501 1067.58 401.871C1073.38 406.325 1072.95 406.552 1065.27 403.109C1053.93 398.022 1042.62 387.791 1044.68 384.469C1044.94 384.055 1048.81 383.062 1053.28 382.262C1079.84 377.511 1098.08 365.132 1101.91 349.256L1102.33 347.504L1100.96 349.989C1096.04 358.932 1085.31 365.166 1070.03 367.954L1063.37 369.169L1046.9 369.068C1037.83 369.012 1029.32 368.698 1027.97 368.37L1025.51 367.773L1023.6 364.294C1020 357.736 1022.33 345.227 1027.61 342.824L1029.29 342.06L1035.28 343.927C1038.58 344.954 1043.87 346.888 1047.04 348.225C1053.93 351.126 1054.17 351.162 1051.45 348.879C1042.24 341.117 1031.78 335.945 1025.31 335.945H1021.92L1020.11 337.871C1016.34 341.899 1013.97 349.608 1013.95 357.898L1013.94 362.687L1017.59 369.807L1021.24 376.929L1028.64 384.316C1038.69 394.36 1052.49 403.313 1068.11 409.92L1072.85 411.924L1071.45 412.44C1070.68 412.724 1065.76 413.66 1060.52 414.519L1050.99 416.082L1043.86 415.281C1039.94 414.842 1035.39 414.006 1033.75 413.426C1029.79 412.024 1029.98 412.626 1035.03 417.584C1037.37 419.884 1039.56 422.269 1039.9 422.885L1040.52 424.003L1035.29 423.668C1029.23 423.279 1029.19 423.351 1032.8 427.455C1034.31 429.161 1035.75 431.417 1036.01 432.467C1036.27 433.517 1037.44 436.741 1038.61 439.631L1040.73 444.885ZM888.073 397.654C883.629 401.202 872.878 406.369 863.195 409.61L859.339 410.9L864.404 410.55C872.992 409.956 883.299 404.832 887.638 398.997L889.461 396.545L888.073 397.654ZM1029.49 401.424C1033.64 405.159 1039.57 408.371 1044.98 409.829C1047 410.371 1050.07 410.812 1051.8 410.81L1054.96 410.801L1049.35 408.857C1041.93 406.286 1033.75 402.468 1029.72 399.701C1025.2 396.593 1025.08 397.467 1029.49 401.424ZM919.643 367.797C922.339 368.812 924.839 369.936 925.199 370.296C925.56 370.656 926.033 370.771 926.252 370.551C926.47 370.332 925.97 369.628 925.142 368.987C924.312 368.346 922.476 366.923 921.06 365.825L918.486 363.829L918.965 360.921C919.228 359.322 919.868 356.764 920.386 355.238C921.7 351.369 921.192 351.389 918.31 355.322C915.605 359.015 913.559 364.043 914.284 365.217C914.535 365.622 916.947 366.784 919.643 367.797ZM992.692 366.678C991.031 367.82 989.221 369.296 988.671 369.959L987.67 371.164L991.165 369.397C993.087 368.424 996.001 367.228 997.641 366.738L1000.62 365.848V364.184C1000.62 362.219 997.873 356.78 995.38 353.81C993.314 351.349 993.308 351.368 994.668 355.848C995.243 357.739 995.712 360.483 995.712 361.944V364.601L992.692 366.678ZM966.519 444.351C964.691 446.838 962.446 449.158 961.529 449.506C957.18 451.158 952.447 449.918 950.115 446.516C944.712 438.633 941.199 436.861 937.126 439.964L934.849 441.699L934.431 440.608C932.981 436.834 934.625 432.73 938.358 430.801C941.246 429.309 943.762 429.9 949.653 433.456L954.465 436.361H957.498H960.53L965.37 433.488C971.477 429.863 973.138 429.454 976.324 430.784C979.573 432.14 981.374 435.607 980.699 439.203C980.147 442.14 980.042 442.189 978.201 440.349C974.559 436.71 971.317 437.821 966.519 444.351ZM970.633 426.132L965.382 429.028L960.132 431.924L957.414 431.891C955.631 431.868 952.925 430.904 949.554 429.089L944.414 426.32H941.27C939.541 426.32 937.516 426.646 936.77 427.045C936.024 427.444 935.414 427.523 935.415 427.22C935.421 425.294 939.155 413.323 940.891 409.661L942.976 405.263L948.836 402.313C956.377 398.517 958.52 398.498 966.028 402.16L971.752 404.952L973.886 409.506C975.06 412.01 976.796 416.961 977.744 420.508L979.467 426.957L975.05 426.545L970.633 426.132ZM948.56 420.626C950.006 421.364 951.79 422.631 952.525 423.443C954.343 425.452 954.576 425.296 953.336 422.9C952.114 420.54 948.366 417.212 946.929 417.212C944.973 417.212 945.974 419.308 948.56 420.626ZM968.071 417.212C966.58 417.212 962.861 420.58 961.597 423.075L960.485 425.269L962.498 423.422C963.605 422.406 965.536 421.058 966.79 420.427C969.093 419.266 969.911 417.212 968.071 417.212ZM918.824 387.788C920.926 387.788 928.249 392.13 931.177 395.112L934.303 398.297H929.344H924.384L922.517 396.829C919.282 394.286 916.627 387.788 918.824 387.788ZM996.238 387.795C998.218 387.779 995.352 394.573 992.402 396.893L990.615 398.297H985.802C983.154 398.297 980.988 398.06 980.988 397.771C980.99 395.878 993.311 387.819 996.238 387.795ZM970.471 293.159C970.471 301.329 967.565 313.58 962.817 325.436C961.35 329.097 959.503 333.154 958.711 334.452L957.273 336.813L955.101 333.051C952.288 328.179 951.104 324.171 949.437 313.877C947.762 303.534 946.418 298.844 943.769 294.096C942.645 292.079 941.724 290.259 941.724 290.053C941.724 289.123 947.97 292.931 950.592 295.46L953.5 298.265L954.035 296.613C954.329 295.704 954.935 292.123 955.382 288.656L956.194 282.35L958.34 286.554C960.151 290.1 962.144 296.753 962.916 301.831L963.109 303.096L965.066 300.079C966.142 298.42 967.557 295.565 968.21 293.735C969.654 289.688 970.471 289.48 970.471 293.159ZM984.932 315.858C980.241 316.5 977.03 318.415 971.894 323.631C969.398 326.165 967.162 328.238 966.925 328.238C966.064 328.238 973.483 307.528 974.898 305.98C976.986 303.696 982.867 301.006 986.948 300.469L990.454 300.008L986.067 303.327C981.314 306.923 979.586 308.937 979.586 310.88C979.586 311.432 979.551 311.793 979.709 311.93C979.996 312.178 980.919 311.693 983.837 310.284C991.323 306.668 1000.45 305.309 1005.06 307.124L1006.34 307.628L1000.57 309.294C997.397 310.21 993.311 311.962 991.489 313.186C989.555 314.488 986.829 315.598 984.932 315.858ZM918.235 316.786C918.235 317.481 916.021 319.276 909.822 323.609C907.54 325.204 905.764 325.372 903.161 324.24L900.707 323.173L893.345 323.211L885.983 323.249L888.086 322.112C889.243 321.487 892.714 320.312 895.799 319.5C899.245 318.594 902.597 317.158 904.493 315.776L907.578 313.526L910.453 313.527C913.568 313.528 918.235 315.482 918.235 316.786ZM926.413 298.814C939.22 298.814 943.705 304.139 946.914 323.159C947.79 328.349 945.017 325.01 939.787 314.577C937.856 310.724 935.59 306.783 934.753 305.82L933.231 304.068L934.028 305.704C934.467 306.604 934.662 307.505 934.461 307.705C934.046 308.12 926.628 302.544 924.612 300.3L923.277 298.814H926.413ZM1021.46 323.303C1016.39 323.324 1013.07 323.68 1011.38 324.385C1009.92 324.996 1009.15 325.345 1008.4 325.298C1007.46 325.238 1006.56 324.551 1004.38 322.968C1002.5 321.611 999.932 319.838 998.663 319.028C997.393 318.219 996.465 317.201 996.601 316.767C997.033 315.382 1001.57 313.528 1004.54 313.527L1007.4 313.526L1010.5 315.89C1012.61 317.507 1015.25 318.644 1018.85 319.49C1021.74 320.171 1025.21 321.3 1026.56 322L1029.02 323.272L1021.46 323.303ZM935.161 314.003C935.686 315.257 936.115 316.609 936.115 317.006C936.115 317.923 935.201 317.938 934.298 317.036C933.917 316.654 932.039 316.134 930.126 315.88C928.082 315.609 925.493 314.621 923.845 313.483C921.196 311.655 915.195 309.295 910.523 308.244L908.419 307.77L910.172 307.092C911.136 306.719 914.607 306.52 917.885 306.651L923.845 306.889L929.026 309.305L934.207 311.722L935.161 314.003ZM982.741 299.514C982.934 299.514 983.092 299.672 983.092 299.865C983.092 300.057 982.934 300.215 982.741 300.215C982.548 300.215 982.391 300.057 982.391 299.865C982.391 299.672 982.548 299.514 982.741 299.514Z" fill="url(#paint0_linear_409_19)"/>
</g>
</g>
</g>
<defs>
<linearGradient id="paint0_linear_409_19" x1="957.85" y1="259.581" x2="957.85" y2="523" gradientUnits="userSpaceOnUse">
<stop stop-color="#C8AA4E"/>
<stop offset="0.671568" stop-color="#886125"/>
</linearGradient>
<clipPath id="clip0_409_19">
<rect width="1920" height="1080" fill="white"/>
</clipPath>
<clipPath id="clip1_409_19">
<rect width="320" height="320" fill="white" transform="translate(800 229)"/>
</clipPath>
<clipPath id="clip2_409_19">
<rect width="305" height="241" fill="white" transform="translate(805 282)"/>
</clipPath>
</defs>
</svg>
